<?xml version="1.0" encoding="UTF-8" standalone="no"?>
<!DOCTYPE svg PUBLIC "-//W3C//DTD SVG 1.1//EN"
 "http://www.w3.org/Graphics/SVG/1.1/DTD/svg11.dtd">
<!-- Generated by graphviz version 2.50.0 (0)
 -->
<!-- Title: G Pages: 1 -->
<svg width="454pt" height="1051pt"
 viewBox="0.00 0.00 454.00 1051.00" xmlns="http://www.w3.org/2000/svg" xmlns:xlink="http://www.w3.org/1999/xlink">
<g id="graph0" class="graph" transform="scale(1 1) rotate(0) translate(4 1047)">
<title>G</title>
<polygon fill="white" stroke="transparent" points="-4,4 -4,-1047 450,-1047 450,4 -4,4"/>
<!-- dpi -->
<g id="node1" class="node">
<title>dpi</title>
<ellipse fill="none" stroke="black" cx="27" cy="-1019.5" rx="27" ry="18"/>
<text text-anchor="middle" x="27" y="-1015.8" font-family="Times New Roman,serif" font-size="14.00">dpi</text>
</g>
<!-- 1801129428208 -->
<g id="node2" class="node">
<title>1801129428208</title>
<polygon fill="none" stroke="black" points="72,-996.5 72,-1042.5 426,-1042.5 426,-996.5 72,-996.5"/>
<text text-anchor="middle" x="153.5" y="-1015.8" font-family="Times New Roman,serif" font-size="14.00">conv2d_input: InputLayer</text>
<polyline fill="none" stroke="black" points="235,-996.5 235,-1042.5 "/>
<text text-anchor="middle" x="263" y="-1027.3" font-family="Times New Roman,serif" font-size="14.00">input:</text>
<polyline fill="none" stroke="black" points="235,-1019.5 291,-1019.5 "/>
<text text-anchor="middle" x="263" y="-1004.3" font-family="Times New Roman,serif" font-size="14.00">output:</text>
<polyline fill="none" stroke="black" points="291,-996.5 291,-1042.5 "/>
<text text-anchor="middle" x="358.5" y="-1027.3" font-family="Times New Roman,serif" font-size="14.00">[(None, 150, 150, 7)]</text>
<polyline fill="none" stroke="black" points="291,-1019.5 426,-1019.5 "/>
<text text-anchor="middle" x="358.5" y="-1004.3" font-family="Times New Roman,serif" font-size="14.00">[(None, 150, 150, 7)]</text>
</g>
<!-- 1801722442032 -->
<g id="node3" class="node">
<title>1801722442032</title>
<polygon fill="none" stroke="black" points="98,-913.5 98,-959.5 400,-959.5 400,-913.5 98,-913.5"/>
<text text-anchor="middle" x="154.5" y="-932.8" font-family="Times New Roman,serif" font-size="14.00">conv2d: Conv2D</text>
<polyline fill="none" stroke="black" points="211,-913.5 211,-959.5 "/>
<text text-anchor="middle" x="239" y="-944.3" font-family="Times New Roman,serif" font-size="14.00">input:</text>
<polyline fill="none" stroke="black" points="211,-936.5 267,-936.5 "/>
<text text-anchor="middle" x="239" y="-921.3" font-family="Times New Roman,serif" font-size="14.00">output:</text>
<polyline fill="none" stroke="black" points="267,-913.5 267,-959.5 "/>
<text text-anchor="middle" x="333.5" y="-944.3" font-family="Times New Roman,serif" font-size="14.00">(None, 150, 150, 7)</text>
<polyline fill="none" stroke="black" points="267,-936.5 400,-936.5 "/>
<text text-anchor="middle" x="333.5" y="-921.3" font-family="Times New Roman,serif" font-size="14.00">(None, 150, 150, 32)</text>
</g>
<!-- 1801129428208&#45;&gt;1801722442032 -->
<g id="edge1" class="edge">
<title>1801129428208&#45;&gt;1801722442032</title>
<path fill="none" stroke="black" d="M249,-996.37C249,-988.15 249,-978.66 249,-969.73"/>
<polygon fill="black" stroke="black" points="252.5,-969.61 249,-959.61 245.5,-969.61 252.5,-969.61"/>
</g>
<!-- 1801112201488 -->
<g id="node4" class="node">
<title>1801112201488</title>
<polygon fill="none" stroke="black" points="55.5,-830.5 55.5,-876.5 442.5,-876.5 442.5,-830.5 55.5,-830.5"/>
<text text-anchor="middle" x="154.5" y="-849.8" font-family="Times New Roman,serif" font-size="14.00">max_pooling2d: MaxPooling2D</text>
<polyline fill="none" stroke="black" points="253.5,-830.5 253.5,-876.5 "/>
<text text-anchor="middle" x="281.5" y="-861.3" font-family="Times New Roman,serif" font-size="14.00">input:</text>
<polyline fill="none" stroke="black" points="253.5,-853.5 309.5,-853.5 "/>
<text text-anchor="middle" x="281.5" y="-838.3" font-family="Times New Roman,serif" font-size="14.00">output:</text>
<polyline fill="none" stroke="black" points="309.5,-830.5 309.5,-876.5 "/>
<text text-anchor="middle" x="376" y="-861.3" font-family="Times New Roman,serif" font-size="14.00">(None, 150, 150, 32)</text>
<polyline fill="none" stroke="black" points="309.5,-853.5 442.5,-853.5 "/>
<text text-anchor="middle" x="376" y="-838.3" font-family="Times New Roman,serif" font-size="14.00">(None, 75, 75, 32)</text>
</g>
<!-- 1801722442032&#45;&gt;1801112201488 -->
<g id="edge2" class="edge">
<title>1801722442032&#45;&gt;1801112201488</title>
<path fill="none" stroke="black" d="M249,-913.37C249,-905.15 249,-895.66 249,-886.73"/>
<polygon fill="black" stroke="black" points="252.5,-886.61 249,-876.61 245.5,-886.61 252.5,-886.61"/>
</g>
<!-- 1801132105056 -->
<g id="node5" class="node">
<title>1801132105056</title>
<polygon fill="none" stroke="black" points="98,-747.5 98,-793.5 400,-793.5 400,-747.5 98,-747.5"/>
<text text-anchor="middle" x="161.5" y="-766.8" font-family="Times New Roman,serif" font-size="14.00">conv2d_1: Conv2D</text>
<polyline fill="none" stroke="black" points="225,-747.5 225,-793.5 "/>
<text text-anchor="middle" x="253" y="-778.3" font-family="Times New Roman,serif" font-size="14.00">input:</text>
<polyline fill="none" stroke="black" points="225,-770.5 281,-770.5 "/>
<text text-anchor="middle" x="253" y="-755.3" font-family="Times New Roman,serif" font-size="14.00">output:</text>
<polyline fill="none" stroke="black" points="281,-747.5 281,-793.5 "/>
<text text-anchor="middle" x="340.5" y="-778.3" font-family="Times New Roman,serif" font-size="14.00">(None, 75, 75, 32)</text>
<polyline fill="none" stroke="black" points="281,-770.5 400,-770.5 "/>
<text text-anchor="middle" x="340.5" y="-755.3" font-family="Times New Roman,serif" font-size="14.00">(None, 75, 75, 64)</text>
</g>
<!-- 1801112201488&#45;&gt;1801132105056 -->
<g id="edge3" class="edge">
<title>1801112201488&#45;&gt;1801132105056</title>
<path fill="none" stroke="black" d="M249,-830.37C249,-822.15 249,-812.66 249,-803.73"/>
<polygon fill="black" stroke="black" points="252.5,-803.61 249,-793.61 245.5,-803.61 252.5,-803.61"/>
</g>
<!-- 1801129430512 -->
<g id="node6" class="node">
<title>1801129430512</title>
<polygon fill="none" stroke="black" points="55.5,-664.5 55.5,-710.5 442.5,-710.5 442.5,-664.5 55.5,-664.5"/>
<text text-anchor="middle" x="161.5" y="-683.8" font-family="Times New Roman,serif" font-size="14.00">max_pooling2d_1: MaxPooling2D</text>
<polyline fill="none" stroke="black" points="267.5,-664.5 267.5,-710.5 "/>
<text text-anchor="middle" x="295.5" y="-695.3" font-family="Times New Roman,serif" font-size="14.00">input:</text>
<polyline fill="none" stroke="black" points="267.5,-687.5 323.5,-687.5 "/>
<text text-anchor="middle" x="295.5" y="-672.3" font-family="Times New Roman,serif" font-size="14.00">output:</text>
<polyline fill="none" stroke="black" points="323.5,-664.5 323.5,-710.5 "/>
<text text-anchor="middle" x="383" y="-695.3" font-family="Times New Roman,serif" font-size="14.00">(None, 75, 75, 64)</text>
<polyline fill="none" stroke="black" points="323.5,-687.5 442.5,-687.5 "/>
<text text-anchor="middle" x="383" y="-672.3" font-family="Times New Roman,serif" font-size="14.00">(None, 37, 37, 64)</text>
</g>
<!-- 1801132105056&#45;&gt;1801129430512 -->
<g id="edge4" class="edge">
<title>1801132105056&#45;&gt;1801129430512</title>
<path fill="none" stroke="black" d="M249,-747.37C249,-739.15 249,-729.66 249,-720.73"/>
<polygon fill="black" stroke="black" points="252.5,-720.61 249,-710.61 245.5,-720.61 252.5,-720.61"/>
</g>
<!-- 1801241590320 -->
<g id="node7" class="node">
<title>1801241590320</title>
<polygon fill="none" stroke="black" points="94.5,-581.5 94.5,-627.5 403.5,-627.5 403.5,-581.5 94.5,-581.5"/>
<text text-anchor="middle" x="158" y="-600.8" font-family="Times New Roman,serif" font-size="14.00">conv2d_2: Conv2D</text>
<polyline fill="none" stroke="black" points="221.5,-581.5 221.5,-627.5 "/>
<text text-anchor="middle" x="249.5" y="-612.3" font-family="Times New Roman,serif" font-size="14.00">input:</text>
<polyline fill="none" stroke="black" points="221.5,-604.5 277.5,-604.5 "/>
<text text-anchor="middle" x="249.5" y="-589.3" font-family="Times New Roman,serif" font-size="14.00">output:</text>
<polyline fill="none" stroke="black" points="277.5,-581.5 277.5,-627.5 "/>
<text text-anchor="middle" x="340.5" y="-612.3" font-family="Times New Roman,serif" font-size="14.00">(None, 37, 37, 64)</text>
<polyline fill="none" stroke="black" points="277.5,-604.5 403.5,-604.5 "/>
<text text-anchor="middle" x="340.5" y="-589.3" font-family="Times New Roman,serif" font-size="14.00">(None, 37, 37, 128)</text>
</g>
<!-- 1801129430512&#45;&gt;1801241590320 -->
<g id="edge5" class="edge">
<title>1801129430512&#45;&gt;1801241590320</title>
<path fill="none" stroke="black" d="M249,-664.37C249,-656.15 249,-646.66 249,-637.73"/>
<polygon fill="black" stroke="black" points="252.5,-637.61 249,-627.61 245.5,-637.61 252.5,-637.61"/>
</g>
<!-- 1801241552736 -->
<g id="node8" class="node">
<title>1801241552736</title>
<polygon fill="none" stroke="black" points="52,-498.5 52,-544.5 446,-544.5 446,-498.5 52,-498.5"/>
<text text-anchor="middle" x="158" y="-517.8" font-family="Times New Roman,serif" font-size="14.00">max_pooling2d_2: MaxPooling2D</text>
<polyline fill="none" stroke="black" points="264,-498.5 264,-544.5 "/>
<text text-anchor="middle" x="292" y="-529.3" font-family="Times New Roman,serif" font-size="14.00">input:</text>
<polyline fill="none" stroke="black" points="264,-521.5 320,-521.5 "/>
<text text-anchor="middle" x="292" y="-506.3" font-family="Times New Roman,serif" font-size="14.00">output:</text>
<polyline fill="none" stroke="black" points="320,-498.5 320,-544.5 "/>
<text text-anchor="middle" x="383" y="-529.3" font-family="Times New Roman,serif" font-size="14.00">(None, 37, 37, 128)</text>
<polyline fill="none" stroke="black" points="320,-521.5 446,-521.5 "/>
<text text-anchor="middle" x="383" y="-506.3" font-family="Times New Roman,serif" font-size="14.00">(None, 18, 18, 128)</text>
</g>
<!-- 1801241590320&#45;&gt;1801241552736 -->
<g id="edge6" class="edge">
<title>1801241590320&#45;&gt;1801241552736</title>
<path fill="none" stroke="black" d="M249,-581.37C249,-573.15 249,-563.66 249,-554.73"/>
<polygon fill="black" stroke="black" points="252.5,-554.61 249,-544.61 245.5,-554.61 252.5,-554.61"/>
</g>
<!-- 1801241590656 -->
<g id="node9" class="node">
<title>1801241590656</title>
<polygon fill="none" stroke="black" points="108.5,-415.5 108.5,-461.5 389.5,-461.5 389.5,-415.5 108.5,-415.5"/>
<text text-anchor="middle" x="158" y="-434.8" font-family="Times New Roman,serif" font-size="14.00">flatten: Flatten</text>
<polyline fill="none" stroke="black" points="207.5,-415.5 207.5,-461.5 "/>
<text text-anchor="middle" x="235.5" y="-446.3" font-family="Times New Roman,serif" font-size="14.00">input:</text>
<polyline fill="none" stroke="black" points="207.5,-438.5 263.5,-438.5 "/>
<text text-anchor="middle" x="235.5" y="-423.3" font-family="Times New Roman,serif" font-size="14.00">output:</text>
<polyline fill="none" stroke="black" points="263.5,-415.5 263.5,-461.5 "/>
<text text-anchor="middle" x="326.5" y="-446.3" font-family="Times New Roman,serif" font-size="14.00">(None, 18, 18, 128)</text>
<polyline fill="none" stroke="black" points="263.5,-438.5 389.5,-438.5 "/>
<text text-anchor="middle" x="326.5" y="-423.3" font-family="Times New Roman,serif" font-size="14.00">(None, 41472)</text>
</g>
<!-- 1801241552736&#45;&gt;1801241590656 -->
<g id="edge7" class="edge">
<title>1801241552736&#45;&gt;1801241590656</title>
<path fill="none" stroke="black" d="M249,-498.37C249,-490.15 249,-480.66 249,-471.73"/>
<polygon fill="black" stroke="black" points="252.5,-471.61 249,-461.61 245.5,-471.61 252.5,-471.61"/>
</g>
<!-- 1801241648000 -->
<g id="node10" class="node">
<title>1801241648000</title>
<polygon fill="none" stroke="black" points="126.5,-332.5 126.5,-378.5 371.5,-378.5 371.5,-332.5 126.5,-332.5"/>
<text text-anchor="middle" x="172" y="-351.8" font-family="Times New Roman,serif" font-size="14.00">dense: Dense</text>
<polyline fill="none" stroke="black" points="217.5,-332.5 217.5,-378.5 "/>
<text text-anchor="middle" x="245.5" y="-363.3" font-family="Times New Roman,serif" font-size="14.00">input:</text>
<polyline fill="none" stroke="black" points="217.5,-355.5 273.5,-355.5 "/>
<text text-anchor="middle" x="245.5" y="-340.3" font-family="Times New Roman,serif" font-size="14.00">output:</text>
<polyline fill="none" stroke="black" points="273.5,-332.5 273.5,-378.5 "/>
<text text-anchor="middle" x="322.5" y="-363.3" font-family="Times New Roman,serif" font-size="14.00">(None, 41472)</text>
<polyline fill="none" stroke="black" points="273.5,-355.5 371.5,-355.5 "/>
<text text-anchor="middle" x="322.5" y="-340.3" font-family="Times New Roman,serif" font-size="14.00">(None, 1024)</text>
</g>
<!-- 1801241590656&#45;&gt;1801241648000 -->
<g id="edge8" class="edge">
<title>1801241590656&#45;&gt;1801241648000</title>
<path fill="none" stroke="black" d="M249,-415.37C249,-407.15 249,-397.66 249,-388.73"/>
<polygon fill="black" stroke="black" points="252.5,-388.61 249,-378.61 245.5,-388.61 252.5,-388.61"/>
</g>
<!-- 1801241646752 -->
<g id="node11" class="node">
<title>1801241646752</title>
<polygon fill="none" stroke="black" points="118.5,-249.5 118.5,-295.5 379.5,-295.5 379.5,-249.5 118.5,-249.5"/>
<text text-anchor="middle" x="175.5" y="-268.8" font-family="Times New Roman,serif" font-size="14.00">dropout: Dropout</text>
<polyline fill="none" stroke="black" points="232.5,-249.5 232.5,-295.5 "/>
<text text-anchor="middle" x="260.5" y="-280.3" font-family="Times New Roman,serif" font-size="14.00">input:</text>
<polyline fill="none" stroke="black" points="232.5,-272.5 288.5,-272.5 "/>
<text text-anchor="middle" x="260.5" y="-257.3" font-family="Times New Roman,serif" font-size="14.00">output:</text>
<polyline fill="none" stroke="black" points="288.5,-249.5 288.5,-295.5 "/>
<text text-anchor="middle" x="334" y="-280.3" font-family="Times New Roman,serif" font-size="14.00">(None, 1024)</text>
<polyline fill="none" stroke="black" points="288.5,-272.5 379.5,-272.5 "/>
<text text-anchor="middle" x="334" y="-257.3" font-family="Times New Roman,serif" font-size="14.00">(None, 1024)</text>
</g>
<!-- 1801241648000&#45;&gt;1801241646752 -->
<g id="edge9" class="edge">
<title>1801241648000&#45;&gt;1801241646752</title>
<path fill="none" stroke="black" d="M249,-332.37C249,-324.15 249,-314.66 249,-305.73"/>
<polygon fill="black" stroke="black" points="252.5,-305.61 249,-295.61 245.5,-305.61 252.5,-305.61"/>
</g>
<!-- 1801241648672 -->
<g id="node12" class="node">
<title>1801241648672</title>
<polygon fill="none" stroke="black" points="123,-166.5 123,-212.5 375,-212.5 375,-166.5 123,-166.5"/>
<text text-anchor="middle" x="175.5" y="-185.8" font-family="Times New Roman,serif" font-size="14.00">dense_1: Dense</text>
<polyline fill="none" stroke="black" points="228,-166.5 228,-212.5 "/>
<text text-anchor="middle" x="256" y="-197.3" font-family="Times New Roman,serif" font-size="14.00">input:</text>
<polyline fill="none" stroke="black" points="228,-189.5 284,-189.5 "/>
<text text-anchor="middle" x="256" y="-174.3" font-family="Times New Roman,serif" font-size="14.00">output:</text>
<polyline fill="none" stroke="black" points="284,-166.5 284,-212.5 "/>
<text text-anchor="middle" x="329.5" y="-197.3" font-family="Times New Roman,serif" font-size="14.00">(None, 1024)</text>
<polyline fill="none" stroke="black" points="284,-189.5 375,-189.5 "/>
<text text-anchor="middle" x="329.5" y="-174.3" font-family="Times New Roman,serif" font-size="14.00">(None, 1024)</text>
</g>
<!-- 1801241646752&#45;&gt;1801241648672 -->
<g id="edge10" class="edge">
<title>1801241646752&#45;&gt;1801241648672</title>
<path fill="none" stroke="black" d="M249,-249.37C249,-241.15 249,-231.66 249,-222.73"/>
<polygon fill="black" stroke="black" points="252.5,-222.61 249,-212.61 245.5,-222.61 252.5,-222.61"/>
</g>
<!-- 1801241647568 -->
<g id="node13" class="node">
<title>1801241647568</title>
<polygon fill="none" stroke="black" points="111.5,-83.5 111.5,-129.5 386.5,-129.5 386.5,-83.5 111.5,-83.5"/>
<text text-anchor="middle" x="175.5" y="-102.8" font-family="Times New Roman,serif" font-size="14.00">dropout_1: Dropout</text>
<polyline fill="none" stroke="black" points="239.5,-83.5 239.5,-129.5 "/>
<text text-anchor="middle" x="267.5" y="-114.3" font-family="Times New Roman,serif" font-size="14.00">input:</text>
<polyline fill="none" stroke="black" points="239.5,-106.5 295.5,-106.5 "/>
<text text-anchor="middle" x="267.5" y="-91.3" font-family="Times New Roman,serif" font-size="14.00">output:</text>
<polyline fill="none" stroke="black" points="295.5,-83.5 295.5,-129.5 "/>
<text text-anchor="middle" x="341" y="-114.3" font-family="Times New Roman,serif" font-size="14.00">(None, 1024)</text>
<polyline fill="none" stroke="black" points="295.5,-106.5 386.5,-106.5 "/>
<text text-anchor="middle" x="341" y="-91.3" font-family="Times New Roman,serif" font-size="14.00">(None, 1024)</text>
</g>
<!-- 1801241648672&#45;&gt;1801241647568 -->
<g id="edge11" class="edge">
<title>1801241648672&#45;&gt;1801241647568</title>
<path fill="none" stroke="black" d="M249,-166.37C249,-158.15 249,-148.66 249,-139.73"/>
<polygon fill="black" stroke="black" points="252.5,-139.61 249,-129.61 245.5,-139.61 252.5,-139.61"/>
</g>
<!-- 1801241669536 -->
<g id="node14" class="node">
<title>1801241669536</title>
<polygon fill="none" stroke="black" points="123,-0.5 123,-46.5 375,-46.5 375,-0.5 123,-0.5"/>
<text text-anchor="middle" x="175.5" y="-19.8" font-family="Times New Roman,serif" font-size="14.00">dense_2: Dense</text>
<polyline fill="none" stroke="black" points="228,-0.5 228,-46.5 "/>
<text text-anchor="middle" x="256" y="-31.3" font-family="Times New Roman,serif" font-size="14.00">input:</text>
<polyline fill="none" stroke="black" points="228,-23.5 284,-23.5 "/>
<text text-anchor="middle" x="256" y="-8.3" font-family="Times New Roman,serif" font-size="14.00">output:</text>
<polyline fill="none" stroke="black" points="284,-0.5 284,-46.5 "/>
<text text-anchor="middle" x="329.5" y="-31.3" font-family="Times New Roman,serif" font-size="14.00">(None, 1024)</text>
<polyline fill="none" stroke="black" points="284,-23.5 375,-23.5 "/>
<text text-anchor="middle" x="329.5" y="-8.3" font-family="Times New Roman,serif" font-size="14.00">(None, 5)</text>
</g>
<!-- 1801241647568&#45;&gt;1801241669536 -->
<g id="edge12" class="edge">
<title>1801241647568&#45;&gt;1801241669536</title>
<path fill="none" stroke="black" d="M249,-83.37C249,-75.15 249,-65.66 249,-56.73"/>
<polygon fill="black" stroke="black" points="252.5,-56.61 249,-46.61 245.5,-56.61 252.5,-56.61"/>
</g>
</g>
</svg>
