<?xml version="1.0" encoding="utf-8" standalone="no"?>
<!DOCTYPE svg PUBLIC "-//W3C//DTD SVG 1.1//EN"
  "http://www.w3.org/Graphics/SVG/1.1/DTD/svg11.dtd">
<svg xmlns:xlink="http://www.w3.org/1999/xlink" width="720pt" height="864pt" viewBox="0 0 720 864" xmlns="http://www.w3.org/2000/svg" version="1.1">
 <metadata>
  <rdf:RDF xmlns:dc="http://purl.org/dc/elements/1.1/" xmlns:cc="http://creativecommons.org/ns#" xmlns:rdf="http://www.w3.org/1999/02/22-rdf-syntax-ns#">
   <cc:Work>
    <dc:type rdf:resource="http://purl.org/dc/dcmitype/StillImage"/>
    <dc:date>2024-12-21T04:37:18.089227</dc:date>
    <dc:format>image/svg+xml</dc:format>
    <dc:creator>
     <cc:Agent>
      <dc:title>Matplotlib v3.9.2, https://matplotlib.org/</dc:title>
     </cc:Agent>
    </dc:creator>
   </cc:Work>
  </rdf:RDF>
 </metadata>
 <defs>
  <style type="text/css">*{stroke-linejoin: round; stroke-linecap: butt}</style>
 </defs>
 <g id="figure_1">
  <g id="patch_1">
   <path d="M 0 864 
L 720 864 
L 720 0 
L 0 0 
z
" style="fill: #ffffff"/>
  </g>
  <g id="axes_1">
   <g id="patch_2">
    <path d="M 55.19 391.48 
L 707.04 391.48 
L 707.04 29.04 
L 55.19 29.04 
z
" style="fill: #ffffff"/>
   </g>
   <g id="matplotlib.axis_1">
    <g id="xtick_1">
     <g id="line2d_1">
      <path d="M 84.819545 391.48 
L 84.819545 29.04 
" clip-path="url(#pe5c3524a1e)" style="fill: none; stroke: #b0b0b0; stroke-width: 0.8; stroke-linecap: square"/>
     </g>
     <g id="line2d_2">
      <defs>
       <path id="m48155aafd7" d="M 0 0 
L 0 3.5 
" style="stroke: #000000; stroke-width: 0.8"/>
      </defs>
      <g>
       <use xlink:href="#m48155aafd7" x="84.819545" y="391.48" style="stroke: #000000; stroke-width: 0.8"/>
      </g>
     </g>
     <g id="text_1">
      <!-- 0 -->
      <g transform="translate(81.520483 406.76) scale(0.12 -0.12)">
       <defs>
        <path id="Consolas-30" d="M 3244 2041 
Q 3244 1572 3150 1186 
Q 3056 800 2865 523 
Q 2675 247 2392 95 
Q 2109 -56 1728 -56 
Q 1400 -56 1131 67 
Q 863 191 672 447 
Q 481 703 378 1100 
Q 275 1497 275 2041 
Q 275 2509 370 2896 
Q 466 3284 655 3561 
Q 844 3838 1128 3989 
Q 1413 4141 1791 4141 
Q 2119 4141 2387 4017 
Q 2656 3894 2847 3636 
Q 3038 3378 3141 2981 
Q 3244 2584 3244 2041 
z
M 2694 2022 
Q 2694 2128 2686 2233 
Q 2678 2338 2669 2438 
L 941 1153 
Q 988 991 1059 853 
Q 1131 716 1232 617 
Q 1334 519 1464 464 
Q 1594 409 1759 409 
Q 1972 409 2145 512 
Q 2319 616 2441 819 
Q 2563 1022 2628 1323 
Q 2694 1625 2694 2022 
z
M 825 2059 
Q 825 1963 826 1866 
Q 828 1769 838 1678 
L 2566 2956 
Q 2519 3116 2447 3247 
Q 2375 3378 2275 3473 
Q 2175 3569 2047 3622 
Q 1919 3675 1759 3675 
Q 1547 3675 1373 3572 
Q 1200 3469 1078 3264 
Q 956 3059 890 2757 
Q 825 2456 825 2059 
z
" transform="scale(0.015625)"/>
       </defs>
       <use xlink:href="#Consolas-30"/>
      </g>
     </g>
    </g>
    <g id="xtick_2">
     <g id="line2d_3">
      <path d="M 186.990392 391.48 
L 186.990392 29.04 
" clip-path="url(#pe5c3524a1e)" style="fill: none; stroke: #b0b0b0; stroke-width: 0.8; stroke-linecap: square"/>
     </g>
     <g id="line2d_4">
      <g>
       <use xlink:href="#m48155aafd7" x="186.990392" y="391.48" style="stroke: #000000; stroke-width: 0.8"/>
      </g>
     </g>
     <g id="text_2">
      <!-- 5 -->
      <g transform="translate(183.691329 406.76) scale(0.12 -0.12)">
       <defs>
        <path id="Consolas-35" d="M 3047 1306 
Q 3047 1003 2915 753 
Q 2784 503 2554 323 
Q 2325 144 2012 44 
Q 1700 -56 1338 -56 
Q 1247 -56 1142 -51 
Q 1038 -47 934 -39 
Q 831 -31 732 -22 
Q 634 -13 556 0 
L 556 494 
Q 725 453 942 434 
Q 1159 416 1381 416 
Q 1631 416 1831 475 
Q 2031 534 2172 645 
Q 2313 756 2388 914 
Q 2463 1072 2463 1269 
Q 2463 1650 2189 1823 
Q 1916 1997 1403 1997 
L 628 1997 
L 628 4084 
L 2828 4084 
L 2828 3609 
L 1141 3609 
L 1141 2463 
L 1497 2463 
Q 1791 2463 2069 2409 
Q 2347 2356 2564 2223 
Q 2781 2091 2914 1867 
Q 3047 1644 3047 1306 
z
" transform="scale(0.015625)"/>
       </defs>
       <use xlink:href="#Consolas-35"/>
      </g>
     </g>
    </g>
    <g id="xtick_3">
     <g id="line2d_5">
      <path d="M 289.161238 391.48 
L 289.161238 29.04 
" clip-path="url(#pe5c3524a1e)" style="fill: none; stroke: #b0b0b0; stroke-width: 0.8; stroke-linecap: square"/>
     </g>
     <g id="line2d_6">
      <g>
       <use xlink:href="#m48155aafd7" x="289.161238" y="391.48" style="stroke: #000000; stroke-width: 0.8"/>
      </g>
     </g>
     <g id="text_3">
      <!-- 10 -->
      <g transform="translate(282.563113 406.76) scale(0.12 -0.12)">
       <defs>
        <path id="Consolas-31" d="M 3116 0 
L 550 0 
L 550 506 
L 1600 506 
L 1600 3488 
L 622 2956 
L 422 3419 
L 1722 4103 
L 2203 4103 
L 2203 506 
L 3116 506 
L 3116 0 
z
" transform="scale(0.015625)"/>
       </defs>
       <use xlink:href="#Consolas-31"/>
       <use xlink:href="#Consolas-30" x="54.980469"/>
      </g>
     </g>
    </g>
    <g id="xtick_4">
     <g id="line2d_7">
      <path d="M 391.332085 391.48 
L 391.332085 29.04 
" clip-path="url(#pe5c3524a1e)" style="fill: none; stroke: #b0b0b0; stroke-width: 0.8; stroke-linecap: square"/>
     </g>
     <g id="line2d_8">
      <g>
       <use xlink:href="#m48155aafd7" x="391.332085" y="391.48" style="stroke: #000000; stroke-width: 0.8"/>
      </g>
     </g>
     <g id="text_4">
      <!-- 15 -->
      <g transform="translate(384.73396 406.76) scale(0.12 -0.12)">
       <use xlink:href="#Consolas-31"/>
       <use xlink:href="#Consolas-35" x="54.980469"/>
      </g>
     </g>
    </g>
    <g id="xtick_5">
     <g id="line2d_9">
      <path d="M 493.502931 391.48 
L 493.502931 29.04 
" clip-path="url(#pe5c3524a1e)" style="fill: none; stroke: #b0b0b0; stroke-width: 0.8; stroke-linecap: square"/>
     </g>
     <g id="line2d_10">
      <g>
       <use xlink:href="#m48155aafd7" x="493.502931" y="391.48" style="stroke: #000000; stroke-width: 0.8"/>
      </g>
     </g>
     <g id="text_5">
      <!-- 20 -->
      <g transform="translate(486.904806 406.76) scale(0.12 -0.12)">
       <defs>
        <path id="Consolas-32" d="M 3150 0 
L 459 0 
L 459 488 
L 1516 1538 
Q 1775 1794 1937 1981 
Q 2100 2169 2190 2323 
Q 2281 2478 2312 2615 
Q 2344 2753 2344 2913 
Q 2344 3063 2303 3198 
Q 2263 3334 2178 3437 
Q 2094 3541 1959 3600 
Q 1825 3659 1638 3659 
Q 1378 3659 1165 3543 
Q 953 3428 775 3244 
L 475 3603 
Q 706 3847 1007 3994 
Q 1309 4141 1709 4141 
Q 1981 4141 2204 4059 
Q 2428 3978 2590 3825 
Q 2753 3672 2842 3450 
Q 2931 3228 2931 2950 
Q 2931 2716 2868 2516 
Q 2806 2316 2679 2117 
Q 2553 1919 2361 1706 
Q 2169 1494 1906 1241 
L 1166 519 
L 3150 519 
L 3150 0 
z
" transform="scale(0.015625)"/>
       </defs>
       <use xlink:href="#Consolas-32"/>
       <use xlink:href="#Consolas-30" x="54.980469"/>
      </g>
     </g>
    </g>
    <g id="xtick_6">
     <g id="line2d_11">
      <path d="M 595.673777 391.48 
L 595.673777 29.04 
" clip-path="url(#pe5c3524a1e)" style="fill: none; stroke: #b0b0b0; stroke-width: 0.8; stroke-linecap: square"/>
     </g>
     <g id="line2d_12">
      <g>
       <use xlink:href="#m48155aafd7" x="595.673777" y="391.48" style="stroke: #000000; stroke-width: 0.8"/>
      </g>
     </g>
     <g id="text_6">
      <!-- 25 -->
      <g transform="translate(589.075652 406.76) scale(0.12 -0.12)">
       <use xlink:href="#Consolas-32"/>
       <use xlink:href="#Consolas-35" x="54.980469"/>
      </g>
     </g>
    </g>
    <g id="xtick_7">
     <g id="line2d_13">
      <path d="M 697.844624 391.48 
L 697.844624 29.04 
" clip-path="url(#pe5c3524a1e)" style="fill: none; stroke: #b0b0b0; stroke-width: 0.8; stroke-linecap: square"/>
     </g>
     <g id="line2d_14">
      <g>
       <use xlink:href="#m48155aafd7" x="697.844624" y="391.48" style="stroke: #000000; stroke-width: 0.8"/>
      </g>
     </g>
     <g id="text_7">
      <!-- 30 -->
      <g transform="translate(691.246499 406.76) scale(0.12 -0.12)">
       <defs>
        <path id="Consolas-33" d="M 3072 1241 
Q 3072 972 2962 736 
Q 2853 500 2634 323 
Q 2416 147 2084 45 
Q 1753 -56 1313 -56 
Q 1069 -56 875 -40 
Q 681 -25 513 0 
L 513 488 
Q 706 453 922 434 
Q 1138 416 1363 416 
Q 1669 416 1886 470 
Q 2103 525 2240 628 
Q 2378 731 2440 878 
Q 2503 1025 2503 1209 
Q 2503 1378 2428 1503 
Q 2353 1628 2217 1712 
Q 2081 1797 1892 1839 
Q 1703 1881 1478 1881 
L 1013 1881 
L 1013 2328 
L 1484 2328 
Q 1669 2328 1820 2376 
Q 1972 2425 2080 2515 
Q 2188 2606 2245 2739 
Q 2303 2872 2303 3041 
Q 2303 3369 2103 3519 
Q 1903 3669 1516 3669 
Q 1309 3669 1090 3628 
Q 872 3588 622 3506 
L 622 3981 
Q 728 4019 848 4048 
Q 969 4078 1089 4098 
Q 1209 4119 1328 4130 
Q 1447 4141 1556 4141 
Q 1881 4141 2128 4070 
Q 2375 4000 2540 3869 
Q 2706 3738 2790 3550 
Q 2875 3363 2875 3128 
Q 2875 2778 2695 2540 
Q 2516 2303 2203 2163 
Q 2363 2138 2517 2063 
Q 2672 1988 2795 1870 
Q 2919 1753 2995 1593 
Q 3072 1434 3072 1241 
z
" transform="scale(0.015625)"/>
       </defs>
       <use xlink:href="#Consolas-33"/>
       <use xlink:href="#Consolas-30" x="54.980469"/>
      </g>
     </g>
    </g>
    <g id="text_8">
     <!-- Epoch -->
     <g transform="translate(364.619687 421.441875) scale(0.12 -0.12)">
      <defs>
       <path id="Consolas-45" d="M 2950 0 
L 628 0 
L 628 4084 
L 2950 4084 
L 2950 3616 
L 1184 3616 
L 1184 2350 
L 2881 2350 
L 2881 1881 
L 1184 1881 
L 1184 475 
L 2950 475 
L 2950 0 
z
" transform="scale(0.015625)"/>
       <path id="Consolas-70" d="M 3181 1625 
Q 3181 1206 3064 893 
Q 2947 581 2740 375 
Q 2534 169 2253 65 
Q 1972 -38 1644 -38 
Q 1494 -38 1345 -22 
Q 1197 -6 1044 31 
L 1044 -1281 
L 500 -1281 
L 500 3138 
L 984 3138 
L 1019 2613 
Q 1253 2934 1518 3064 
Q 1784 3194 2094 3194 
Q 2363 3194 2566 3081 
Q 2769 2969 2906 2764 
Q 3044 2559 3112 2270 
Q 3181 1981 3181 1625 
z
M 2625 1600 
Q 2625 1847 2589 2053 
Q 2553 2259 2475 2406 
Q 2397 2553 2275 2636 
Q 2153 2719 1984 2719 
Q 1881 2719 1775 2686 
Q 1669 2653 1555 2576 
Q 1441 2500 1314 2373 
Q 1188 2247 1044 2059 
L 1044 538 
Q 1194 475 1359 439 
Q 1525 403 1684 403 
Q 2125 403 2375 701 
Q 2625 1000 2625 1600 
z
" transform="scale(0.015625)"/>
       <path id="Consolas-6f" d="M 3231 1594 
Q 3231 1228 3128 923 
Q 3025 619 2831 401 
Q 2638 184 2359 64 
Q 2081 -56 1728 -56 
Q 1391 -56 1123 48 
Q 856 153 670 356 
Q 484 559 386 859 
Q 288 1159 288 1550 
Q 288 1916 391 2217 
Q 494 2519 687 2736 
Q 881 2953 1159 3073 
Q 1438 3194 1791 3194 
Q 2128 3194 2395 3089 
Q 2663 2984 2848 2782 
Q 3034 2581 3132 2281 
Q 3231 1981 3231 1594 
z
M 2675 1569 
Q 2675 1859 2611 2076 
Q 2547 2294 2428 2439 
Q 2309 2584 2139 2657 
Q 1969 2731 1759 2731 
Q 1516 2731 1342 2636 
Q 1169 2541 1058 2381 
Q 947 2222 895 2011 
Q 844 1800 844 1569 
Q 844 1278 908 1059 
Q 972 841 1090 695 
Q 1209 550 1378 476 
Q 1547 403 1759 403 
Q 2003 403 2176 498 
Q 2350 594 2461 753 
Q 2572 913 2623 1123 
Q 2675 1334 2675 1569 
z
" transform="scale(0.015625)"/>
       <path id="Consolas-63" d="M 2938 116 
Q 2725 34 2501 -5 
Q 2278 -44 2041 -44 
Q 1297 -44 895 359 
Q 494 763 494 1538 
Q 494 1909 609 2212 
Q 725 2516 934 2731 
Q 1144 2947 1434 3064 
Q 1725 3181 2075 3181 
Q 2319 3181 2531 3147 
Q 2744 3113 2938 3034 
L 2938 2516 
Q 2734 2622 2523 2670 
Q 2313 2719 2088 2719 
Q 1878 2719 1692 2639 
Q 1506 2559 1365 2409 
Q 1225 2259 1144 2043 
Q 1063 1828 1063 1556 
Q 1063 988 1339 705 
Q 1616 422 2106 422 
Q 2328 422 2536 472 
Q 2744 522 2938 622 
L 2938 116 
z
" transform="scale(0.015625)"/>
       <path id="Consolas-68" d="M 3022 0 
L 2478 0 
L 2478 2003 
Q 2478 2366 2342 2545 
Q 2206 2725 1953 2725 
Q 1844 2725 1748 2695 
Q 1653 2666 1550 2592 
Q 1447 2519 1325 2394 
Q 1203 2269 1044 2081 
L 1044 0 
L 500 0 
L 500 4416 
L 1044 4416 
L 1044 3138 
L 1025 2644 
Q 1153 2797 1276 2901 
Q 1400 3006 1523 3072 
Q 1647 3138 1775 3166 
Q 1903 3194 2041 3194 
Q 2509 3194 2765 2908 
Q 3022 2622 3022 2047 
L 3022 0 
z
" transform="scale(0.015625)"/>
      </defs>
      <use xlink:href="#Consolas-45"/>
      <use xlink:href="#Consolas-70" x="54.980469"/>
      <use xlink:href="#Consolas-6f" x="109.960938"/>
      <use xlink:href="#Consolas-63" x="164.941406"/>
      <use xlink:href="#Consolas-68" x="219.921875"/>
     </g>
    </g>
   </g>
   <g id="matplotlib.axis_2">
    <g id="ytick_1">
     <g id="line2d_15">
      <path d="M 55.19 377.014545 
L 707.04 377.014545 
" clip-path="url(#pe5c3524a1e)" style="fill: none; stroke: #b0b0b0; stroke-width: 0.8; stroke-linecap: square"/>
     </g>
     <g id="line2d_16">
      <defs>
       <path id="mef98ab50cd" d="M 0 0 
L -3.5 0 
" style="stroke: #000000; stroke-width: 0.8"/>
      </defs>
      <g>
       <use xlink:href="#mef98ab50cd" x="55.19" y="377.014545" style="stroke: #000000; stroke-width: 0.8"/>
      </g>
     </g>
     <g id="text_9">
      <!-- 0.0 -->
      <g transform="translate(28.395625 381.154545) scale(0.12 -0.12)">
       <defs>
        <path id="Consolas-2e" d="M 1734 984 
Q 1841 984 1936 943 
Q 2031 903 2101 831 
Q 2172 759 2212 664 
Q 2253 569 2253 459 
Q 2253 353 2212 259 
Q 2172 166 2101 95 
Q 2031 25 1936 -15 
Q 1841 -56 1734 -56 
Q 1625 -56 1531 -15 
Q 1438 25 1367 95 
Q 1297 166 1256 259 
Q 1216 353 1216 459 
Q 1216 569 1256 664 
Q 1297 759 1367 831 
Q 1438 903 1531 943 
Q 1625 984 1734 984 
z
" transform="scale(0.015625)"/>
       </defs>
       <use xlink:href="#Consolas-30"/>
       <use xlink:href="#Consolas-2e" x="54.980469"/>
       <use xlink:href="#Consolas-30" x="109.960938"/>
      </g>
     </g>
    </g>
    <g id="ytick_2">
     <g id="line2d_17">
      <path d="M 55.19 309.107272 
L 707.04 309.107272 
" clip-path="url(#pe5c3524a1e)" style="fill: none; stroke: #b0b0b0; stroke-width: 0.8; stroke-linecap: square"/>
     </g>
     <g id="line2d_18">
      <g>
       <use xlink:href="#mef98ab50cd" x="55.19" y="309.107272" style="stroke: #000000; stroke-width: 0.8"/>
      </g>
     </g>
     <g id="text_10">
      <!-- 0.2 -->
      <g transform="translate(28.395625 313.247272) scale(0.12 -0.12)">
       <use xlink:href="#Consolas-30"/>
       <use xlink:href="#Consolas-2e" x="54.980469"/>
       <use xlink:href="#Consolas-32" x="109.960938"/>
      </g>
     </g>
    </g>
    <g id="ytick_3">
     <g id="line2d_19">
      <path d="M 55.19 241.199999 
L 707.04 241.199999 
" clip-path="url(#pe5c3524a1e)" style="fill: none; stroke: #b0b0b0; stroke-width: 0.8; stroke-linecap: square"/>
     </g>
     <g id="line2d_20">
      <g>
       <use xlink:href="#mef98ab50cd" x="55.19" y="241.199999" style="stroke: #000000; stroke-width: 0.8"/>
      </g>
     </g>
     <g id="text_11">
      <!-- 0.4 -->
      <g transform="translate(28.395625 245.339999) scale(0.12 -0.12)">
       <defs>
        <path id="Consolas-34" d="M 3353 903 
L 2656 903 
L 2656 0 
L 2100 0 
L 2100 903 
L 134 903 
L 134 1381 
L 1875 4084 
L 2656 4084 
L 2656 1381 
L 3353 1381 
L 3353 903 
z
M 2100 3559 
L 678 1381 
L 2100 1381 
L 2100 3559 
z
" transform="scale(0.015625)"/>
       </defs>
       <use xlink:href="#Consolas-30"/>
       <use xlink:href="#Consolas-2e" x="54.980469"/>
       <use xlink:href="#Consolas-34" x="109.960938"/>
      </g>
     </g>
    </g>
    <g id="ytick_4">
     <g id="line2d_21">
      <path d="M 55.19 173.292726 
L 707.04 173.292726 
" clip-path="url(#pe5c3524a1e)" style="fill: none; stroke: #b0b0b0; stroke-width: 0.8; stroke-linecap: square"/>
     </g>
     <g id="line2d_22">
      <g>
       <use xlink:href="#mef98ab50cd" x="55.19" y="173.292726" style="stroke: #000000; stroke-width: 0.8"/>
      </g>
     </g>
     <g id="text_12">
      <!-- 0.6 -->
      <g transform="translate(28.395625 177.432726) scale(0.12 -0.12)">
       <defs>
        <path id="Consolas-36" d="M 3200 1294 
Q 3200 1013 3098 766 
Q 2997 519 2809 336 
Q 2622 153 2358 48 
Q 2094 -56 1772 -56 
Q 1434 -56 1175 51 
Q 916 159 741 382 
Q 566 606 475 947 
Q 384 1288 384 1753 
Q 384 2066 425 2359 
Q 466 2653 559 2912 
Q 653 3172 809 3387 
Q 966 3603 1198 3758 
Q 1431 3913 1747 3998 
Q 2063 4084 2478 4084 
L 2881 4084 
L 2881 3609 
L 2444 3609 
Q 2078 3609 1809 3521 
Q 1541 3434 1359 3275 
Q 1178 3116 1081 2891 
Q 984 2666 959 2388 
L 947 2259 
Q 1144 2375 1401 2445 
Q 1659 2516 1959 2516 
Q 2269 2516 2501 2425 
Q 2734 2334 2889 2173 
Q 3044 2013 3122 1788 
Q 3200 1563 3200 1294 
z
M 2631 1259 
Q 2631 1447 2586 1598 
Q 2541 1750 2444 1854 
Q 2347 1959 2198 2017 
Q 2050 2075 1844 2075 
Q 1725 2075 1603 2053 
Q 1481 2031 1364 1992 
Q 1247 1953 1140 1903 
Q 1034 1853 947 1797 
Q 947 1394 1003 1123 
Q 1059 853 1170 690 
Q 1281 528 1443 459 
Q 1606 391 1819 391 
Q 1997 391 2145 448 
Q 2294 506 2401 618 
Q 2509 731 2570 892 
Q 2631 1053 2631 1259 
z
" transform="scale(0.015625)"/>
       </defs>
       <use xlink:href="#Consolas-30"/>
       <use xlink:href="#Consolas-2e" x="54.980469"/>
       <use xlink:href="#Consolas-36" x="109.960938"/>
      </g>
     </g>
    </g>
    <g id="ytick_5">
     <g id="line2d_23">
      <path d="M 55.19 105.385452 
L 707.04 105.385452 
" clip-path="url(#pe5c3524a1e)" style="fill: none; stroke: #b0b0b0; stroke-width: 0.8; stroke-linecap: square"/>
     </g>
     <g id="line2d_24">
      <g>
       <use xlink:href="#mef98ab50cd" x="55.19" y="105.385452" style="stroke: #000000; stroke-width: 0.8"/>
      </g>
     </g>
     <g id="text_13">
      <!-- 0.8 -->
      <g transform="translate(28.395625 109.525452) scale(0.12 -0.12)">
       <defs>
        <path id="Consolas-38" d="M 3150 1025 
Q 3150 766 3044 564 
Q 2938 363 2747 225 
Q 2556 88 2297 16 
Q 2038 -56 1734 -56 
Q 1400 -56 1145 19 
Q 891 94 719 228 
Q 547 363 459 547 
Q 372 731 372 953 
Q 372 1328 581 1600 
Q 791 1872 1228 2094 
Q 828 2297 643 2545 
Q 459 2794 459 3116 
Q 459 3313 540 3497 
Q 622 3681 786 3825 
Q 950 3969 1197 4055 
Q 1444 4141 1778 4141 
Q 2094 4141 2333 4073 
Q 2572 4006 2734 3881 
Q 2897 3756 2978 3578 
Q 3059 3400 3059 3181 
Q 3059 2825 2861 2575 
Q 2663 2325 2297 2138 
Q 2478 2047 2634 1937 
Q 2791 1828 2906 1693 
Q 3022 1559 3086 1393 
Q 3150 1228 3150 1025 
z
M 2503 3138 
Q 2503 3416 2308 3552 
Q 2113 3688 1759 3688 
Q 1409 3688 1214 3553 
Q 1019 3419 1019 3150 
Q 1019 3028 1066 2925 
Q 1113 2822 1211 2731 
Q 1309 2641 1456 2553 
Q 1603 2466 1806 2375 
Q 2159 2541 2331 2720 
Q 2503 2900 2503 3138 
z
M 2559 984 
Q 2559 1100 2521 1209 
Q 2484 1319 2387 1425 
Q 2291 1531 2128 1637 
Q 1966 1744 1716 1856 
Q 1503 1753 1358 1651 
Q 1213 1550 1123 1445 
Q 1034 1341 996 1228 
Q 959 1116 959 991 
Q 959 850 1020 742 
Q 1081 634 1187 559 
Q 1294 484 1441 446 
Q 1588 409 1759 409 
Q 1925 409 2072 443 
Q 2219 478 2326 548 
Q 2434 619 2496 726 
Q 2559 834 2559 984 
z
" transform="scale(0.015625)"/>
       </defs>
       <use xlink:href="#Consolas-30"/>
       <use xlink:href="#Consolas-2e" x="54.980469"/>
       <use xlink:href="#Consolas-38" x="109.960938"/>
      </g>
     </g>
    </g>
    <g id="ytick_6">
     <g id="line2d_25">
      <path d="M 55.19 37.478179 
L 707.04 37.478179 
" clip-path="url(#pe5c3524a1e)" style="fill: none; stroke: #b0b0b0; stroke-width: 0.8; stroke-linecap: square"/>
     </g>
     <g id="line2d_26">
      <g>
       <use xlink:href="#mef98ab50cd" x="55.19" y="37.478179" style="stroke: #000000; stroke-width: 0.8"/>
      </g>
     </g>
     <g id="text_14">
      <!-- 1.0 -->
      <g transform="translate(28.395625 41.618179) scale(0.12 -0.12)">
       <use xlink:href="#Consolas-31"/>
       <use xlink:href="#Consolas-2e" x="54.980469"/>
       <use xlink:href="#Consolas-30" x="109.960938"/>
      </g>
     </g>
    </g>
    <g id="text_15">
     <!-- accuracy -->
     <g transform="translate(21.958125 236.6525) rotate(-90) scale(0.12 -0.12)">
      <defs>
       <path id="Consolas-61" d="M 2516 0 
L 2503 422 
Q 2247 169 1983 56 
Q 1719 -56 1428 -56 
Q 1159 -56 968 12 
Q 778 81 654 201 
Q 531 322 473 484 
Q 416 647 416 838 
Q 416 1309 767 1576 
Q 1119 1844 1806 1844 
L 2456 1844 
L 2456 2119 
Q 2456 2397 2278 2564 
Q 2100 2731 1734 2731 
Q 1469 2731 1211 2672 
Q 953 2613 678 2503 
L 678 2994 
Q 781 3031 907 3067 
Q 1034 3103 1175 3131 
Q 1316 3159 1469 3176 
Q 1622 3194 1778 3194 
Q 2063 3194 2291 3131 
Q 2519 3069 2676 2941 
Q 2834 2813 2918 2619 
Q 3003 2425 3003 2163 
L 3003 0 
L 2516 0 
z
M 2456 1428 
L 1766 1428 
Q 1563 1428 1416 1387 
Q 1269 1347 1175 1272 
Q 1081 1197 1036 1092 
Q 991 988 991 856 
Q 991 766 1019 683 
Q 1047 600 1109 536 
Q 1172 472 1272 434 
Q 1372 397 1516 397 
Q 1703 397 1945 511 
Q 2188 625 2456 872 
L 2456 1428 
z
" transform="scale(0.015625)"/>
       <path id="Consolas-75" d="M 3022 0 
L 2534 0 
L 2516 506 
Q 2375 344 2248 236 
Q 2122 128 1997 62 
Q 1872 -3 1745 -29 
Q 1619 -56 1478 -56 
Q 994 -56 747 228 
Q 500 513 500 1088 
L 500 3138 
L 1044 3138 
L 1044 1131 
Q 1044 409 1588 409 
Q 1688 409 1783 439 
Q 1878 469 1983 542 
Q 2088 616 2208 741 
Q 2328 866 2478 1056 
L 2478 3138 
L 3022 3138 
L 3022 0 
z
" transform="scale(0.015625)"/>
       <path id="Consolas-72" d="M 628 3138 
L 1125 3138 
L 1141 2559 
Q 1419 2894 1689 3044 
Q 1959 3194 2234 3194 
Q 2722 3194 2973 2878 
Q 3225 2563 3206 1941 
L 2656 1941 
Q 2666 2353 2536 2539 
Q 2406 2725 2156 2725 
Q 2047 2725 1936 2686 
Q 1825 2647 1708 2561 
Q 1591 2475 1459 2340 
Q 1328 2206 1178 2016 
L 1178 0 
L 628 0 
L 628 3138 
z
" transform="scale(0.015625)"/>
       <path id="Consolas-79" d="M 3291 3138 
L 2222 331 
Q 2056 -97 1879 -406 
Q 1703 -716 1493 -914 
Q 1284 -1113 1034 -1206 
Q 784 -1300 475 -1300 
Q 394 -1300 328 -1297 
Q 263 -1294 184 -1288 
L 184 -794 
Q 253 -803 334 -811 
Q 416 -819 506 -819 
Q 656 -819 786 -775 
Q 916 -731 1031 -632 
Q 1147 -534 1253 -378 
Q 1359 -222 1459 0 
L 206 3138 
L 825 3138 
L 1619 1063 
L 1778 575 
L 1959 1075 
L 2694 3138 
L 3291 3138 
z
" transform="scale(0.015625)"/>
      </defs>
      <use xlink:href="#Consolas-61"/>
      <use xlink:href="#Consolas-63" x="54.980469"/>
      <use xlink:href="#Consolas-63" x="109.960938"/>
      <use xlink:href="#Consolas-75" x="164.941406"/>
      <use xlink:href="#Consolas-72" x="219.921875"/>
      <use xlink:href="#Consolas-61" x="274.902344"/>
      <use xlink:href="#Consolas-63" x="329.882812"/>
      <use xlink:href="#Consolas-79" x="384.863281"/>
     </g>
    </g>
   </g>
   <g id="line2d_27">
    <path d="M 84.819545 220.576307 
L 105.253715 166.2505 
L 125.687884 141.602667 
L 146.122053 139.087576 
L 166.556223 120.978967 
L 186.990392 115.445791 
L 207.424561 115.445791 
L 227.85873 100.355287 
L 248.2929 93.816063 
L 268.727069 81.24065 
L 289.161238 100.355287 
L 309.595408 86.270811 
L 330.029577 73.695397 
L 350.463746 78.725559 
L 370.897915 72.689349 
L 391.332085 73.192383 
L 411.766254 78.725559 
L 432.200423 71.683321 
L 452.634592 66.150145 
L 473.068762 65.647131 
L 493.502931 61.622978 
L 513.9371 64.641083 
L 534.37127 62.629026 
L 554.805439 67.659188 
L 575.239608 60.61695 
L 595.673777 67.659188 
L 616.107947 59.107907 
L 636.542116 62.126012 
L 656.976285 57.095831 
L 677.410455 55.586788 
" clip-path="url(#pe5c3524a1e)" style="fill: none; stroke: #1f77b4; stroke-width: 1.5; stroke-linecap: square"/>
   </g>
   <g id="line2d_28">
    <path d="M 84.819545 368.978182 
L 105.253715 366.969091 
L 125.687884 346.878182 
L 146.122053 375.005455 
L 166.556223 322.769093 
L 186.990392 45.514545 
L 207.424561 372.996364 
L 227.85873 274.550905 
L 248.2929 278.569088 
L 268.727069 375.005455 
L 289.161238 312.723635 
L 309.595408 350.896362 
L 330.029577 348.887273 
L 350.463746 308.705452 
L 370.897915 330.805454 
L 391.332085 350.896362 
L 411.766254 318.75091 
L 432.200423 284.596363 
L 452.634592 310.714543 
L 473.068762 330.805454 
L 493.502931 344.86909 
L 513.9371 314.732727 
L 534.37127 338.841818 
L 554.805439 322.769093 
L 575.239608 326.787271 
L 595.673777 334.823635 
L 616.107947 334.823635 
L 636.542116 370.987273 
L 656.976285 282.587271 
L 677.410455 366.969091 
" clip-path="url(#pe5c3524a1e)" style="fill: none; stroke: #ff7f0e; stroke-width: 1.5; stroke-linecap: square"/>
   </g>
   <g id="patch_3">
    <path d="M 55.19 391.48 
L 55.19 29.04 
" style="fill: none; stroke: #000000; stroke-width: 0.8; stroke-linejoin: miter; stroke-linecap: square"/>
   </g>
   <g id="patch_4">
    <path d="M 707.04 391.48 
L 707.04 29.04 
" style="fill: none; stroke: #000000; stroke-width: 0.8; stroke-linejoin: miter; stroke-linecap: square"/>
   </g>
   <g id="patch_5">
    <path d="M 55.19 391.48 
L 707.04 391.48 
" style="fill: none; stroke: #000000; stroke-width: 0.8; stroke-linejoin: miter; stroke-linecap: square"/>
   </g>
   <g id="patch_6">
    <path d="M 55.19 29.04 
L 707.04 29.04 
" style="fill: none; stroke: #000000; stroke-width: 0.8; stroke-linejoin: miter; stroke-linecap: square"/>
   </g>
   <g id="text_16">
    <!-- Train History -->
    <g transform="translate(329.649625 23.04) scale(0.144 -0.144)">
     <defs>
      <path id="Consolas-54" d="M 3250 3609 
L 2041 3609 
L 2041 0 
L 1478 0 
L 1478 3609 
L 269 3609 
L 269 4084 
L 3250 4084 
L 3250 3609 
z
" transform="scale(0.015625)"/>
      <path id="Consolas-69" d="M 1569 2688 
L 641 2688 
L 641 3138 
L 2119 3138 
L 2119 453 
L 3053 453 
L 3053 0 
L 538 0 
L 538 453 
L 1569 453 
L 1569 2688 
z
M 1759 4453 
Q 1850 4453 1928 4420 
Q 2006 4388 2064 4328 
Q 2122 4269 2155 4192 
Q 2188 4116 2188 4025 
Q 2188 3938 2155 3859 
Q 2122 3781 2064 3722 
Q 2006 3663 1928 3630 
Q 1850 3597 1759 3597 
Q 1669 3597 1591 3630 
Q 1513 3663 1455 3722 
Q 1397 3781 1364 3859 
Q 1331 3938 1331 4025 
Q 1331 4116 1364 4192 
Q 1397 4269 1455 4328 
Q 1513 4388 1591 4420 
Q 1669 4453 1759 4453 
z
" transform="scale(0.015625)"/>
      <path id="Consolas-6e" d="M 500 3138 
L 984 3138 
L 1006 2631 
Q 1144 2794 1272 2901 
Q 1400 3009 1523 3075 
Q 1647 3141 1775 3167 
Q 1903 3194 2041 3194 
Q 2525 3194 2773 2908 
Q 3022 2622 3022 2047 
L 3022 0 
L 2478 0 
L 2478 2003 
Q 2478 2372 2340 2548 
Q 2203 2725 1931 2725 
Q 1831 2725 1736 2695 
Q 1641 2666 1537 2592 
Q 1434 2519 1314 2394 
Q 1194 2269 1044 2081 
L 1044 0 
L 500 0 
L 500 3138 
z
" transform="scale(0.015625)"/>
      <path id="Consolas-20" transform="scale(0.015625)"/>
      <path id="Consolas-48" d="M 3175 0 
L 2619 0 
L 2619 1875 
L 903 1875 
L 903 0 
L 347 0 
L 347 4084 
L 903 4084 
L 903 2356 
L 2619 2356 
L 2619 4084 
L 3175 4084 
L 3175 0 
z
" transform="scale(0.015625)"/>
      <path id="Consolas-73" d="M 2984 856 
Q 2984 691 2928 559 
Q 2872 428 2775 326 
Q 2678 225 2550 153 
Q 2422 81 2276 34 
Q 2131 -13 1978 -34 
Q 1825 -56 1678 -56 
Q 1359 -56 1092 -28 
Q 825 0 569 63 
L 569 563 
Q 844 484 1116 443 
Q 1388 403 1656 403 
Q 2047 403 2234 509 
Q 2422 616 2422 813 
Q 2422 897 2392 964 
Q 2363 1031 2284 1092 
Q 2206 1153 2042 1218 
Q 1878 1284 1594 1369 
Q 1381 1431 1201 1511 
Q 1022 1591 890 1700 
Q 759 1809 684 1956 
Q 609 2103 609 2303 
Q 609 2434 670 2590 
Q 731 2747 878 2881 
Q 1025 3016 1275 3105 
Q 1525 3194 1900 3194 
Q 2084 3194 2309 3173 
Q 2534 3153 2778 3103 
L 2778 2619 
Q 2522 2681 2292 2711 
Q 2063 2741 1894 2741 
Q 1691 2741 1552 2709 
Q 1413 2678 1327 2623 
Q 1241 2569 1203 2495 
Q 1166 2422 1166 2338 
Q 1166 2253 1198 2184 
Q 1231 2116 1320 2052 
Q 1409 1988 1568 1923 
Q 1728 1859 1984 1784 
Q 2263 1703 2453 1614 
Q 2644 1525 2762 1415 
Q 2881 1306 2932 1168 
Q 2984 1031 2984 856 
z
" transform="scale(0.015625)"/>
      <path id="Consolas-74" d="M 3028 44 
Q 2844 -3 2647 -23 
Q 2450 -44 2247 -44 
Q 1656 -44 1365 223 
Q 1075 491 1075 1044 
L 1075 2681 
L 197 2681 
L 197 3138 
L 1075 3138 
L 1075 4000 
L 1619 4141 
L 1619 3138 
L 3028 3138 
L 3028 2681 
L 1619 2681 
L 1619 1088 
Q 1619 750 1798 583 
Q 1978 416 2328 416 
Q 2478 416 2656 439 
Q 2834 463 3028 513 
L 3028 44 
z
" transform="scale(0.015625)"/>
     </defs>
     <use xlink:href="#Consolas-54"/>
     <use xlink:href="#Consolas-72" x="54.980469"/>
     <use xlink:href="#Consolas-61" x="109.960938"/>
     <use xlink:href="#Consolas-69" x="164.941406"/>
     <use xlink:href="#Consolas-6e" x="219.921875"/>
     <use xlink:href="#Consolas-20" x="274.902344"/>
     <use xlink:href="#Consolas-48" x="329.882812"/>
     <use xlink:href="#Consolas-69" x="384.863281"/>
     <use xlink:href="#Consolas-73" x="439.84375"/>
     <use xlink:href="#Consolas-74" x="494.824219"/>
     <use xlink:href="#Consolas-6f" x="549.804688"/>
     <use xlink:href="#Consolas-72" x="604.785156"/>
     <use xlink:href="#Consolas-79" x="659.765625"/>
    </g>
   </g>
   <g id="legend_1">
    <g id="patch_7">
     <path d="M 63.59 72.24375 
L 167.97125 72.24375 
Q 170.37125 72.24375 170.37125 69.84375 
L 170.37125 37.44 
Q 170.37125 35.04 167.97125 35.04 
L 63.59 35.04 
Q 61.19 35.04 61.19 37.44 
L 61.19 69.84375 
Q 61.19 72.24375 63.59 72.24375 
z
" style="fill: #ffffff; opacity: 0.8; stroke: #cccccc; stroke-linejoin: miter"/>
    </g>
    <g id="line2d_29">
     <path d="M 65.99 44.04 
L 77.99 44.04 
L 89.99 44.04 
" style="fill: none; stroke: #1f77b4; stroke-width: 1.5; stroke-linecap: square"/>
    </g>
    <g id="text_17">
     <!-- train -->
     <g transform="translate(99.59 48.24) scale(0.12 -0.12)">
      <use xlink:href="#Consolas-74"/>
      <use xlink:href="#Consolas-72" x="54.980469"/>
      <use xlink:href="#Consolas-61" x="109.960938"/>
      <use xlink:href="#Consolas-69" x="164.941406"/>
      <use xlink:href="#Consolas-6e" x="219.921875"/>
     </g>
    </g>
    <g id="line2d_30">
     <path d="M 65.99 60.841875 
L 77.99 60.841875 
L 89.99 60.841875 
" style="fill: none; stroke: #ff7f0e; stroke-width: 1.5; stroke-linecap: square"/>
    </g>
    <g id="text_18">
     <!-- validation -->
     <g transform="translate(99.59 65.041875) scale(0.12 -0.12)">
      <defs>
       <path id="Consolas-76" d="M 206 3138 
L 825 3138 
L 1594 1063 
L 1759 556 
L 1931 1075 
L 2694 3138 
L 3291 3138 
L 2059 0 
L 1434 0 
L 206 3138 
z
" transform="scale(0.015625)"/>
       <path id="Consolas-6c" d="M 1569 3969 
L 641 3969 
L 641 4416 
L 2119 4416 
L 2119 453 
L 3053 453 
L 3053 0 
L 538 0 
L 538 453 
L 1569 453 
L 1569 3969 
z
" transform="scale(0.015625)"/>
       <path id="Consolas-64" d="M 341 1503 
Q 341 1903 450 2214 
Q 559 2525 761 2739 
Q 963 2953 1245 3064 
Q 1528 3175 1875 3175 
Q 2025 3175 2170 3156 
Q 2316 3138 2456 3097 
L 2456 4416 
L 3003 4416 
L 3003 0 
L 2516 0 
L 2497 594 
Q 2269 263 2003 103 
Q 1738 -56 1428 -56 
Q 1159 -56 954 56 
Q 750 169 614 373 
Q 478 578 409 865 
Q 341 1153 341 1503 
z
M 897 1538 
Q 897 969 1064 689 
Q 1231 409 1538 409 
Q 1744 409 1973 593 
Q 2203 778 2456 1141 
L 2456 2597 
Q 2322 2659 2159 2692 
Q 1997 2725 1838 2725 
Q 1394 2725 1145 2437 
Q 897 2150 897 1538 
z
" transform="scale(0.015625)"/>
      </defs>
      <use xlink:href="#Consolas-76"/>
      <use xlink:href="#Consolas-61" x="54.980469"/>
      <use xlink:href="#Consolas-6c" x="109.960938"/>
      <use xlink:href="#Consolas-69" x="164.941406"/>
      <use xlink:href="#Consolas-64" x="219.921875"/>
      <use xlink:href="#Consolas-61" x="274.902344"/>
      <use xlink:href="#Consolas-74" x="329.882812"/>
      <use xlink:href="#Consolas-69" x="384.863281"/>
      <use xlink:href="#Consolas-6f" x="439.84375"/>
      <use xlink:href="#Consolas-6e" x="494.824219"/>
     </g>
    </g>
   </g>
  </g>
  <g id="axes_2">
   <g id="patch_8">
    <path d="M 55.19 817 
L 707.04 817 
L 707.04 454.56 
L 55.19 454.56 
z
" style="fill: #ffffff"/>
   </g>
   <g id="matplotlib.axis_3">
    <g id="xtick_8">
     <g id="line2d_31">
      <path d="M 84.819545 817 
L 84.819545 454.56 
" clip-path="url(#p1c7a1d1543)" style="fill: none; stroke: #b0b0b0; stroke-width: 0.8; stroke-linecap: square"/>
     </g>
     <g id="line2d_32">
      <g>
       <use xlink:href="#m48155aafd7" x="84.819545" y="817" style="stroke: #000000; stroke-width: 0.8"/>
      </g>
     </g>
     <g id="text_19">
      <!-- 0 -->
      <g transform="translate(81.520483 832.28) scale(0.12 -0.12)">
       <use xlink:href="#Consolas-30"/>
      </g>
     </g>
    </g>
    <g id="xtick_9">
     <g id="line2d_33">
      <path d="M 186.990392 817 
L 186.990392 454.56 
" clip-path="url(#p1c7a1d1543)" style="fill: none; stroke: #b0b0b0; stroke-width: 0.8; stroke-linecap: square"/>
     </g>
     <g id="line2d_34">
      <g>
       <use xlink:href="#m48155aafd7" x="186.990392" y="817" style="stroke: #000000; stroke-width: 0.8"/>
      </g>
     </g>
     <g id="text_20">
      <!-- 5 -->
      <g transform="translate(183.691329 832.28) scale(0.12 -0.12)">
       <use xlink:href="#Consolas-35"/>
      </g>
     </g>
    </g>
    <g id="xtick_10">
     <g id="line2d_35">
      <path d="M 289.161238 817 
L 289.161238 454.56 
" clip-path="url(#p1c7a1d1543)" style="fill: none; stroke: #b0b0b0; stroke-width: 0.8; stroke-linecap: square"/>
     </g>
     <g id="line2d_36">
      <g>
       <use xlink:href="#m48155aafd7" x="289.161238" y="817" style="stroke: #000000; stroke-width: 0.8"/>
      </g>
     </g>
     <g id="text_21">
      <!-- 10 -->
      <g transform="translate(282.563113 832.28) scale(0.12 -0.12)">
       <use xlink:href="#Consolas-31"/>
       <use xlink:href="#Consolas-30" x="54.980469"/>
      </g>
     </g>
    </g>
    <g id="xtick_11">
     <g id="line2d_37">
      <path d="M 391.332085 817 
L 391.332085 454.56 
" clip-path="url(#p1c7a1d1543)" style="fill: none; stroke: #b0b0b0; stroke-width: 0.8; stroke-linecap: square"/>
     </g>
     <g id="line2d_38">
      <g>
       <use xlink:href="#m48155aafd7" x="391.332085" y="817" style="stroke: #000000; stroke-width: 0.8"/>
      </g>
     </g>
     <g id="text_22">
      <!-- 15 -->
      <g transform="translate(384.73396 832.28) scale(0.12 -0.12)">
       <use xlink:href="#Consolas-31"/>
       <use xlink:href="#Consolas-35" x="54.980469"/>
      </g>
     </g>
    </g>
    <g id="xtick_12">
     <g id="line2d_39">
      <path d="M 493.502931 817 
L 493.502931 454.56 
" clip-path="url(#p1c7a1d1543)" style="fill: none; stroke: #b0b0b0; stroke-width: 0.8; stroke-linecap: square"/>
     </g>
     <g id="line2d_40">
      <g>
       <use xlink:href="#m48155aafd7" x="493.502931" y="817" style="stroke: #000000; stroke-width: 0.8"/>
      </g>
     </g>
     <g id="text_23">
      <!-- 20 -->
      <g transform="translate(486.904806 832.28) scale(0.12 -0.12)">
       <use xlink:href="#Consolas-32"/>
       <use xlink:href="#Consolas-30" x="54.980469"/>
      </g>
     </g>
    </g>
    <g id="xtick_13">
     <g id="line2d_41">
      <path d="M 595.673777 817 
L 595.673777 454.56 
" clip-path="url(#p1c7a1d1543)" style="fill: none; stroke: #b0b0b0; stroke-width: 0.8; stroke-linecap: square"/>
     </g>
     <g id="line2d_42">
      <g>
       <use xlink:href="#m48155aafd7" x="595.673777" y="817" style="stroke: #000000; stroke-width: 0.8"/>
      </g>
     </g>
     <g id="text_24">
      <!-- 25 -->
      <g transform="translate(589.075652 832.28) scale(0.12 -0.12)">
       <use xlink:href="#Consolas-32"/>
       <use xlink:href="#Consolas-35" x="54.980469"/>
      </g>
     </g>
    </g>
    <g id="xtick_14">
     <g id="line2d_43">
      <path d="M 697.844624 817 
L 697.844624 454.56 
" clip-path="url(#p1c7a1d1543)" style="fill: none; stroke: #b0b0b0; stroke-width: 0.8; stroke-linecap: square"/>
     </g>
     <g id="line2d_44">
      <g>
       <use xlink:href="#m48155aafd7" x="697.844624" y="817" style="stroke: #000000; stroke-width: 0.8"/>
      </g>
     </g>
     <g id="text_25">
      <!-- 30 -->
      <g transform="translate(691.246499 832.28) scale(0.12 -0.12)">
       <use xlink:href="#Consolas-33"/>
       <use xlink:href="#Consolas-30" x="54.980469"/>
      </g>
     </g>
    </g>
    <g id="text_26">
     <!-- Epoch -->
     <g transform="translate(364.619687 846.961875) scale(0.12 -0.12)">
      <use xlink:href="#Consolas-45"/>
      <use xlink:href="#Consolas-70" x="54.980469"/>
      <use xlink:href="#Consolas-6f" x="109.960938"/>
      <use xlink:href="#Consolas-63" x="164.941406"/>
      <use xlink:href="#Consolas-68" x="219.921875"/>
     </g>
    </g>
   </g>
   <g id="matplotlib.axis_4">
    <g id="ytick_7">
     <g id="line2d_45">
      <path d="M 55.19 802.201257 
L 707.04 802.201257 
" clip-path="url(#p1c7a1d1543)" style="fill: none; stroke: #b0b0b0; stroke-width: 0.8; stroke-linecap: square"/>
     </g>
     <g id="line2d_46">
      <g>
       <use xlink:href="#mef98ab50cd" x="55.19" y="802.201257" style="stroke: #000000; stroke-width: 0.8"/>
      </g>
     </g>
     <g id="text_27">
      <!-- 0 -->
      <g transform="translate(41.591875 806.341257) scale(0.12 -0.12)">
       <use xlink:href="#Consolas-30"/>
      </g>
     </g>
    </g>
    <g id="ytick_8">
     <g id="line2d_47">
      <path d="M 55.19 727.515115 
L 707.04 727.515115 
" clip-path="url(#p1c7a1d1543)" style="fill: none; stroke: #b0b0b0; stroke-width: 0.8; stroke-linecap: square"/>
     </g>
     <g id="line2d_48">
      <g>
       <use xlink:href="#mef98ab50cd" x="55.19" y="727.515115" style="stroke: #000000; stroke-width: 0.8"/>
      </g>
     </g>
     <g id="text_28">
      <!-- 200 -->
      <g transform="translate(28.395625 731.655115) scale(0.12 -0.12)">
       <use xlink:href="#Consolas-32"/>
       <use xlink:href="#Consolas-30" x="54.980469"/>
       <use xlink:href="#Consolas-30" x="109.960938"/>
      </g>
     </g>
    </g>
    <g id="ytick_9">
     <g id="line2d_49">
      <path d="M 55.19 652.828974 
L 707.04 652.828974 
" clip-path="url(#p1c7a1d1543)" style="fill: none; stroke: #b0b0b0; stroke-width: 0.8; stroke-linecap: square"/>
     </g>
     <g id="line2d_50">
      <g>
       <use xlink:href="#mef98ab50cd" x="55.19" y="652.828974" style="stroke: #000000; stroke-width: 0.8"/>
      </g>
     </g>
     <g id="text_29">
      <!-- 400 -->
      <g transform="translate(28.395625 656.968974) scale(0.12 -0.12)">
       <use xlink:href="#Consolas-34"/>
       <use xlink:href="#Consolas-30" x="54.980469"/>
       <use xlink:href="#Consolas-30" x="109.960938"/>
      </g>
     </g>
    </g>
    <g id="ytick_10">
     <g id="line2d_51">
      <path d="M 55.19 578.142833 
L 707.04 578.142833 
" clip-path="url(#p1c7a1d1543)" style="fill: none; stroke: #b0b0b0; stroke-width: 0.8; stroke-linecap: square"/>
     </g>
     <g id="line2d_52">
      <g>
       <use xlink:href="#mef98ab50cd" x="55.19" y="578.142833" style="stroke: #000000; stroke-width: 0.8"/>
      </g>
     </g>
     <g id="text_30">
      <!-- 600 -->
      <g transform="translate(28.395625 582.282833) scale(0.12 -0.12)">
       <use xlink:href="#Consolas-36"/>
       <use xlink:href="#Consolas-30" x="54.980469"/>
       <use xlink:href="#Consolas-30" x="109.960938"/>
      </g>
     </g>
    </g>
    <g id="ytick_11">
     <g id="line2d_53">
      <path d="M 55.19 503.456691 
L 707.04 503.456691 
" clip-path="url(#p1c7a1d1543)" style="fill: none; stroke: #b0b0b0; stroke-width: 0.8; stroke-linecap: square"/>
     </g>
     <g id="line2d_54">
      <g>
       <use xlink:href="#mef98ab50cd" x="55.19" y="503.456691" style="stroke: #000000; stroke-width: 0.8"/>
      </g>
     </g>
     <g id="text_31">
      <!-- 800 -->
      <g transform="translate(28.395625 507.596691) scale(0.12 -0.12)">
       <use xlink:href="#Consolas-38"/>
       <use xlink:href="#Consolas-30" x="54.980469"/>
       <use xlink:href="#Consolas-30" x="109.960938"/>
      </g>
     </g>
    </g>
    <g id="text_32">
     <!-- loss -->
     <g transform="translate(21.99375 648.97625) rotate(-90) scale(0.12 -0.12)">
      <use xlink:href="#Consolas-6c"/>
      <use xlink:href="#Consolas-6f" x="54.980469"/>
      <use xlink:href="#Consolas-73" x="109.960938"/>
      <use xlink:href="#Consolas-73" x="164.941406"/>
     </g>
    </g>
   </g>
   <g id="line2d_55">
    <path d="M 84.819545 663.863311 
L 105.253715 759.633381 
L 125.687884 772.332387 
L 146.122053 777.23485 
L 166.556223 783.075225 
L 186.990392 784.294216 
L 207.424561 786.819055 
L 227.85873 789.777639 
L 248.2929 791.602893 
L 268.727069 794.799 
L 289.161238 790.690028 
L 309.595408 793.93074 
L 330.029577 796.087083 
L 350.463746 795.394938 
L 370.897915 797.270286 
L 391.332085 795.999613 
L 411.766254 795.550079 
L 432.200423 796.545996 
L 452.634592 798.603269 
L 473.068762 797.918312 
L 493.502931 799.031965 
L 513.9371 798.633759 
L 534.37127 799.287638 
L 554.805439 798.149013 
L 575.239608 798.777489 
L 595.673777 797.82021 
L 616.107947 799.960423 
L 636.542116 799.600231 
L 656.976285 799.633534 
L 677.410455 799.832404 
" clip-path="url(#p1c7a1d1543)" style="fill: none; stroke: #1f77b4; stroke-width: 1.5; stroke-linecap: square"/>
   </g>
   <g id="line2d_56">
    <path d="M 84.819545 535.254986 
L 105.253715 598.646968 
L 125.687884 628.598907 
L 146.122053 486.295061 
L 166.556223 681.128487 
L 186.990392 800.525455 
L 207.424561 471.034545 
L 227.85873 725.395473 
L 248.2929 703.016805 
L 268.727069 528.016301 
L 289.161238 669.880494 
L 309.595408 604.434073 
L 330.029577 595.357478 
L 350.463746 666.664064 
L 370.897915 635.323509 
L 391.332085 611.943041 
L 411.766254 637.309457 
L 432.200423 676.679422 
L 452.634592 628.109817 
L 473.068762 611.271896 
L 493.502931 577.310796 
L 513.9371 642.136226 
L 534.37127 584.52279 
L 554.805439 631.779975 
L 575.239608 641.971517 
L 595.673777 638.343571 
L 616.107947 623.462093 
L 636.542116 513.965948 
L 656.976285 695.878897 
L 677.410455 532.64676 
" clip-path="url(#p1c7a1d1543)" style="fill: none; stroke: #ff7f0e; stroke-width: 1.5; stroke-linecap: square"/>
   </g>
   <g id="patch_9">
    <path d="M 55.19 817 
L 55.19 454.56 
" style="fill: none; stroke: #000000; stroke-width: 0.8; stroke-linejoin: miter; stroke-linecap: square"/>
   </g>
   <g id="patch_10">
    <path d="M 707.04 817 
L 707.04 454.56 
" style="fill: none; stroke: #000000; stroke-width: 0.8; stroke-linejoin: miter; stroke-linecap: square"/>
   </g>
   <g id="patch_11">
    <path d="M 55.19 817 
L 707.04 817 
" style="fill: none; stroke: #000000; stroke-width: 0.8; stroke-linejoin: miter; stroke-linecap: square"/>
   </g>
   <g id="patch_12">
    <path d="M 55.19 454.56 
L 707.04 454.56 
" style="fill: none; stroke: #000000; stroke-width: 0.8; stroke-linejoin: miter; stroke-linecap: square"/>
   </g>
   <g id="text_33">
    <!-- Train History -->
    <g transform="translate(329.649625 448.56) scale(0.144 -0.144)">
     <use xlink:href="#Consolas-54"/>
     <use xlink:href="#Consolas-72" x="54.980469"/>
     <use xlink:href="#Consolas-61" x="109.960938"/>
     <use xlink:href="#Consolas-69" x="164.941406"/>
     <use xlink:href="#Consolas-6e" x="219.921875"/>
     <use xlink:href="#Consolas-20" x="274.902344"/>
     <use xlink:href="#Consolas-48" x="329.882812"/>
     <use xlink:href="#Consolas-69" x="384.863281"/>
     <use xlink:href="#Consolas-73" x="439.84375"/>
     <use xlink:href="#Consolas-74" x="494.824219"/>
     <use xlink:href="#Consolas-6f" x="549.804688"/>
     <use xlink:href="#Consolas-72" x="604.785156"/>
     <use xlink:href="#Consolas-79" x="659.765625"/>
    </g>
   </g>
   <g id="legend_2">
    <g id="patch_13">
     <path d="M 594.25875 497.76375 
L 698.64 497.76375 
Q 701.04 497.76375 701.04 495.36375 
L 701.04 462.96 
Q 701.04 460.56 698.64 460.56 
L 594.25875 460.56 
Q 591.85875 460.56 591.85875 462.96 
L 591.85875 495.36375 
Q 591.85875 497.76375 594.25875 497.76375 
z
" style="fill: #ffffff; opacity: 0.8; stroke: #cccccc; stroke-linejoin: miter"/>
    </g>
    <g id="line2d_57">
     <path d="M 596.65875 469.56 
L 608.65875 469.56 
L 620.65875 469.56 
" style="fill: none; stroke: #1f77b4; stroke-width: 1.5; stroke-linecap: square"/>
    </g>
    <g id="text_34">
     <!-- train -->
     <g transform="translate(630.25875 473.76) scale(0.12 -0.12)">
      <use xlink:href="#Consolas-74"/>
      <use xlink:href="#Consolas-72" x="54.980469"/>
      <use xlink:href="#Consolas-61" x="109.960938"/>
      <use xlink:href="#Consolas-69" x="164.941406"/>
      <use xlink:href="#Consolas-6e" x="219.921875"/>
     </g>
    </g>
    <g id="line2d_58">
     <path d="M 596.65875 486.361875 
L 608.65875 486.361875 
L 620.65875 486.361875 
" style="fill: none; stroke: #ff7f0e; stroke-width: 1.5; stroke-linecap: square"/>
    </g>
    <g id="text_35">
     <!-- validation -->
     <g transform="translate(630.25875 490.561875) scale(0.12 -0.12)">
      <use xlink:href="#Consolas-76"/>
      <use xlink:href="#Consolas-61" x="54.980469"/>
      <use xlink:href="#Consolas-6c" x="109.960938"/>
      <use xlink:href="#Consolas-69" x="164.941406"/>
      <use xlink:href="#Consolas-64" x="219.921875"/>
      <use xlink:href="#Consolas-61" x="274.902344"/>
      <use xlink:href="#Consolas-74" x="329.882812"/>
      <use xlink:href="#Consolas-69" x="384.863281"/>
      <use xlink:href="#Consolas-6f" x="439.84375"/>
      <use xlink:href="#Consolas-6e" x="494.824219"/>
     </g>
    </g>
   </g>
  </g>
 </g>
 <defs>
  <clipPath id="pe5c3524a1e">
   <rect x="55.19" y="29.04" width="651.85" height="362.44"/>
  </clipPath>
  <clipPath id="p1c7a1d1543">
   <rect x="55.19" y="454.56" width="651.85" height="362.44"/>
  </clipPath>
 </defs>
</svg>
