<?xml version="1.0" encoding="utf-8" standalone="no"?>
<!DOCTYPE svg PUBLIC "-//W3C//DTD SVG 1.1//EN"
  "http://www.w3.org/Graphics/SVG/1.1/DTD/svg11.dtd">
<svg xmlns:xlink="http://www.w3.org/1999/xlink" width="864pt" height="360pt" viewBox="0 0 864 360" xmlns="http://www.w3.org/2000/svg" version="1.1">
 <metadata>
  <rdf:RDF xmlns:dc="http://purl.org/dc/elements/1.1/" xmlns:cc="http://creativecommons.org/ns#" xmlns:rdf="http://www.w3.org/1999/02/22-rdf-syntax-ns#">
   <cc:Work>
    <dc:type rdf:resource="http://purl.org/dc/dcmitype/StillImage"/>
    <dc:date>2024-12-01T00:41:23.349167</dc:date>
    <dc:format>image/svg+xml</dc:format>
    <dc:creator>
     <cc:Agent>
      <dc:title>Matplotlib v3.9.2, https://matplotlib.org/</dc:title>
     </cc:Agent>
    </dc:creator>
   </cc:Work>
  </rdf:RDF>
 </metadata>
 <defs>
  <style type="text/css">*{stroke-linejoin: round; stroke-linecap: butt}</style>
 </defs>
 <g id="figure_1">
  <g id="patch_1">
   <path d="M 0 360 
L 864 360 
L 864 0 
L 0 0 
z
" style="fill: #ffffff"/>
  </g>
  <g id="axes_1">
   <g id="patch_2">
    <path d="M 61.76 313 
L 851.04 313 
L 851.04 29.04 
L 61.76 29.04 
z
" style="fill: #ffffff"/>
   </g>
   <g id="matplotlib.axis_1">
    <g id="xtick_1">
     <g id="line2d_1">
      <path d="M 97.636364 313 
L 97.636364 29.04 
" clip-path="url(#p6e8d80eaf6)" style="fill: none; stroke: #b0b0b0; stroke-width: 0.8; stroke-linecap: square"/>
     </g>
     <g id="line2d_2">
      <defs>
       <path id="m84d2e6e85e" d="M 0 0 
L 0 3.5 
" style="stroke: #000000; stroke-width: 0.8"/>
      </defs>
      <g>
       <use xlink:href="#m84d2e6e85e" x="97.636364" y="313" style="stroke: #000000; stroke-width: 0.8"/>
      </g>
     </g>
     <g id="text_1">
      <!-- 0 -->
      <g transform="translate(94.337301 328.28) scale(0.12 -0.12)">
       <defs>
        <path id="Consolas-30" d="M 3244 2041 
Q 3244 1572 3150 1186 
Q 3056 800 2865 523 
Q 2675 247 2392 95 
Q 2109 -56 1728 -56 
Q 1400 -56 1131 67 
Q 863 191 672 447 
Q 481 703 378 1100 
Q 275 1497 275 2041 
Q 275 2509 370 2896 
Q 466 3284 655 3561 
Q 844 3838 1128 3989 
Q 1413 4141 1791 4141 
Q 2119 4141 2387 4017 
Q 2656 3894 2847 3636 
Q 3038 3378 3141 2981 
Q 3244 2584 3244 2041 
z
M 2694 2022 
Q 2694 2128 2686 2233 
Q 2678 2338 2669 2438 
L 941 1153 
Q 988 991 1059 853 
Q 1131 716 1232 617 
Q 1334 519 1464 464 
Q 1594 409 1759 409 
Q 1972 409 2145 512 
Q 2319 616 2441 819 
Q 2563 1022 2628 1323 
Q 2694 1625 2694 2022 
z
M 825 2059 
Q 825 1963 826 1866 
Q 828 1769 838 1678 
L 2566 2956 
Q 2519 3116 2447 3247 
Q 2375 3378 2275 3473 
Q 2175 3569 2047 3622 
Q 1919 3675 1759 3675 
Q 1547 3675 1373 3572 
Q 1200 3469 1078 3264 
Q 956 3059 890 2757 
Q 825 2456 825 2059 
z
" transform="scale(0.015625)"/>
       </defs>
       <use xlink:href="#Consolas-30"/>
      </g>
     </g>
    </g>
    <g id="xtick_2">
     <g id="line2d_3">
      <path d="M 221.347962 313 
L 221.347962 29.04 
" clip-path="url(#p6e8d80eaf6)" style="fill: none; stroke: #b0b0b0; stroke-width: 0.8; stroke-linecap: square"/>
     </g>
     <g id="line2d_4">
      <g>
       <use xlink:href="#m84d2e6e85e" x="221.347962" y="313" style="stroke: #000000; stroke-width: 0.8"/>
      </g>
     </g>
     <g id="text_2">
      <!-- 5 -->
      <g transform="translate(218.0489 328.28) scale(0.12 -0.12)">
       <defs>
        <path id="Consolas-35" d="M 3047 1306 
Q 3047 1003 2915 753 
Q 2784 503 2554 323 
Q 2325 144 2012 44 
Q 1700 -56 1338 -56 
Q 1247 -56 1142 -51 
Q 1038 -47 934 -39 
Q 831 -31 732 -22 
Q 634 -13 556 0 
L 556 494 
Q 725 453 942 434 
Q 1159 416 1381 416 
Q 1631 416 1831 475 
Q 2031 534 2172 645 
Q 2313 756 2388 914 
Q 2463 1072 2463 1269 
Q 2463 1650 2189 1823 
Q 1916 1997 1403 1997 
L 628 1997 
L 628 4084 
L 2828 4084 
L 2828 3609 
L 1141 3609 
L 1141 2463 
L 1497 2463 
Q 1791 2463 2069 2409 
Q 2347 2356 2564 2223 
Q 2781 2091 2914 1867 
Q 3047 1644 3047 1306 
z
" transform="scale(0.015625)"/>
       </defs>
       <use xlink:href="#Consolas-35"/>
      </g>
     </g>
    </g>
    <g id="xtick_3">
     <g id="line2d_5">
      <path d="M 345.059561 313 
L 345.059561 29.04 
" clip-path="url(#p6e8d80eaf6)" style="fill: none; stroke: #b0b0b0; stroke-width: 0.8; stroke-linecap: square"/>
     </g>
     <g id="line2d_6">
      <g>
       <use xlink:href="#m84d2e6e85e" x="345.059561" y="313" style="stroke: #000000; stroke-width: 0.8"/>
      </g>
     </g>
     <g id="text_3">
      <!-- 10 -->
      <g transform="translate(338.461436 328.28) scale(0.12 -0.12)">
       <defs>
        <path id="Consolas-31" d="M 3116 0 
L 550 0 
L 550 506 
L 1600 506 
L 1600 3488 
L 622 2956 
L 422 3419 
L 1722 4103 
L 2203 4103 
L 2203 506 
L 3116 506 
L 3116 0 
z
" transform="scale(0.015625)"/>
       </defs>
       <use xlink:href="#Consolas-31"/>
       <use xlink:href="#Consolas-30" x="54.980469"/>
      </g>
     </g>
    </g>
    <g id="xtick_4">
     <g id="line2d_7">
      <path d="M 468.77116 313 
L 468.77116 29.04 
" clip-path="url(#p6e8d80eaf6)" style="fill: none; stroke: #b0b0b0; stroke-width: 0.8; stroke-linecap: square"/>
     </g>
     <g id="line2d_8">
      <g>
       <use xlink:href="#m84d2e6e85e" x="468.77116" y="313" style="stroke: #000000; stroke-width: 0.8"/>
      </g>
     </g>
     <g id="text_4">
      <!-- 15 -->
      <g transform="translate(462.173035 328.28) scale(0.12 -0.12)">
       <use xlink:href="#Consolas-31"/>
       <use xlink:href="#Consolas-35" x="54.980469"/>
      </g>
     </g>
    </g>
    <g id="xtick_5">
     <g id="line2d_9">
      <path d="M 592.482759 313 
L 592.482759 29.04 
" clip-path="url(#p6e8d80eaf6)" style="fill: none; stroke: #b0b0b0; stroke-width: 0.8; stroke-linecap: square"/>
     </g>
     <g id="line2d_10">
      <g>
       <use xlink:href="#m84d2e6e85e" x="592.482759" y="313" style="stroke: #000000; stroke-width: 0.8"/>
      </g>
     </g>
     <g id="text_5">
      <!-- 20 -->
      <g transform="translate(585.884634 328.28) scale(0.12 -0.12)">
       <defs>
        <path id="Consolas-32" d="M 3150 0 
L 459 0 
L 459 488 
L 1516 1538 
Q 1775 1794 1937 1981 
Q 2100 2169 2190 2323 
Q 2281 2478 2312 2615 
Q 2344 2753 2344 2913 
Q 2344 3063 2303 3198 
Q 2263 3334 2178 3437 
Q 2094 3541 1959 3600 
Q 1825 3659 1638 3659 
Q 1378 3659 1165 3543 
Q 953 3428 775 3244 
L 475 3603 
Q 706 3847 1007 3994 
Q 1309 4141 1709 4141 
Q 1981 4141 2204 4059 
Q 2428 3978 2590 3825 
Q 2753 3672 2842 3450 
Q 2931 3228 2931 2950 
Q 2931 2716 2868 2516 
Q 2806 2316 2679 2117 
Q 2553 1919 2361 1706 
Q 2169 1494 1906 1241 
L 1166 519 
L 3150 519 
L 3150 0 
z
" transform="scale(0.015625)"/>
       </defs>
       <use xlink:href="#Consolas-32"/>
       <use xlink:href="#Consolas-30" x="54.980469"/>
      </g>
     </g>
    </g>
    <g id="xtick_6">
     <g id="line2d_11">
      <path d="M 716.194357 313 
L 716.194357 29.04 
" clip-path="url(#p6e8d80eaf6)" style="fill: none; stroke: #b0b0b0; stroke-width: 0.8; stroke-linecap: square"/>
     </g>
     <g id="line2d_12">
      <g>
       <use xlink:href="#m84d2e6e85e" x="716.194357" y="313" style="stroke: #000000; stroke-width: 0.8"/>
      </g>
     </g>
     <g id="text_6">
      <!-- 25 -->
      <g transform="translate(709.596232 328.28) scale(0.12 -0.12)">
       <use xlink:href="#Consolas-32"/>
       <use xlink:href="#Consolas-35" x="54.980469"/>
      </g>
     </g>
    </g>
    <g id="xtick_7">
     <g id="line2d_13">
      <path d="M 839.905956 313 
L 839.905956 29.04 
" clip-path="url(#p6e8d80eaf6)" style="fill: none; stroke: #b0b0b0; stroke-width: 0.8; stroke-linecap: square"/>
     </g>
     <g id="line2d_14">
      <g>
       <use xlink:href="#m84d2e6e85e" x="839.905956" y="313" style="stroke: #000000; stroke-width: 0.8"/>
      </g>
     </g>
     <g id="text_7">
      <!-- 30 -->
      <g transform="translate(833.307831 328.28) scale(0.12 -0.12)">
       <defs>
        <path id="Consolas-33" d="M 3072 1241 
Q 3072 972 2962 736 
Q 2853 500 2634 323 
Q 2416 147 2084 45 
Q 1753 -56 1313 -56 
Q 1069 -56 875 -40 
Q 681 -25 513 0 
L 513 488 
Q 706 453 922 434 
Q 1138 416 1363 416 
Q 1669 416 1886 470 
Q 2103 525 2240 628 
Q 2378 731 2440 878 
Q 2503 1025 2503 1209 
Q 2503 1378 2428 1503 
Q 2353 1628 2217 1712 
Q 2081 1797 1892 1839 
Q 1703 1881 1478 1881 
L 1013 1881 
L 1013 2328 
L 1484 2328 
Q 1669 2328 1820 2376 
Q 1972 2425 2080 2515 
Q 2188 2606 2245 2739 
Q 2303 2872 2303 3041 
Q 2303 3369 2103 3519 
Q 1903 3669 1516 3669 
Q 1309 3669 1090 3628 
Q 872 3588 622 3506 
L 622 3981 
Q 728 4019 848 4048 
Q 969 4078 1089 4098 
Q 1209 4119 1328 4130 
Q 1447 4141 1556 4141 
Q 1881 4141 2128 4070 
Q 2375 4000 2540 3869 
Q 2706 3738 2790 3550 
Q 2875 3363 2875 3128 
Q 2875 2778 2695 2540 
Q 2516 2303 2203 2163 
Q 2363 2138 2517 2063 
Q 2672 1988 2795 1870 
Q 2919 1753 2995 1593 
Q 3072 1434 3072 1241 
z
" transform="scale(0.015625)"/>
       </defs>
       <use xlink:href="#Consolas-33"/>
       <use xlink:href="#Consolas-30" x="54.980469"/>
      </g>
     </g>
    </g>
    <g id="text_8">
     <!-- Epoch -->
     <g transform="translate(439.904687 342.961875) scale(0.12 -0.12)">
      <defs>
       <path id="Consolas-45" d="M 2950 0 
L 628 0 
L 628 4084 
L 2950 4084 
L 2950 3616 
L 1184 3616 
L 1184 2350 
L 2881 2350 
L 2881 1881 
L 1184 1881 
L 1184 475 
L 2950 475 
L 2950 0 
z
" transform="scale(0.015625)"/>
       <path id="Consolas-70" d="M 3181 1625 
Q 3181 1206 3064 893 
Q 2947 581 2740 375 
Q 2534 169 2253 65 
Q 1972 -38 1644 -38 
Q 1494 -38 1345 -22 
Q 1197 -6 1044 31 
L 1044 -1281 
L 500 -1281 
L 500 3138 
L 984 3138 
L 1019 2613 
Q 1253 2934 1518 3064 
Q 1784 3194 2094 3194 
Q 2363 3194 2566 3081 
Q 2769 2969 2906 2764 
Q 3044 2559 3112 2270 
Q 3181 1981 3181 1625 
z
M 2625 1600 
Q 2625 1847 2589 2053 
Q 2553 2259 2475 2406 
Q 2397 2553 2275 2636 
Q 2153 2719 1984 2719 
Q 1881 2719 1775 2686 
Q 1669 2653 1555 2576 
Q 1441 2500 1314 2373 
Q 1188 2247 1044 2059 
L 1044 538 
Q 1194 475 1359 439 
Q 1525 403 1684 403 
Q 2125 403 2375 701 
Q 2625 1000 2625 1600 
z
" transform="scale(0.015625)"/>
       <path id="Consolas-6f" d="M 3231 1594 
Q 3231 1228 3128 923 
Q 3025 619 2831 401 
Q 2638 184 2359 64 
Q 2081 -56 1728 -56 
Q 1391 -56 1123 48 
Q 856 153 670 356 
Q 484 559 386 859 
Q 288 1159 288 1550 
Q 288 1916 391 2217 
Q 494 2519 687 2736 
Q 881 2953 1159 3073 
Q 1438 3194 1791 3194 
Q 2128 3194 2395 3089 
Q 2663 2984 2848 2782 
Q 3034 2581 3132 2281 
Q 3231 1981 3231 1594 
z
M 2675 1569 
Q 2675 1859 2611 2076 
Q 2547 2294 2428 2439 
Q 2309 2584 2139 2657 
Q 1969 2731 1759 2731 
Q 1516 2731 1342 2636 
Q 1169 2541 1058 2381 
Q 947 2222 895 2011 
Q 844 1800 844 1569 
Q 844 1278 908 1059 
Q 972 841 1090 695 
Q 1209 550 1378 476 
Q 1547 403 1759 403 
Q 2003 403 2176 498 
Q 2350 594 2461 753 
Q 2572 913 2623 1123 
Q 2675 1334 2675 1569 
z
" transform="scale(0.015625)"/>
       <path id="Consolas-63" d="M 2938 116 
Q 2725 34 2501 -5 
Q 2278 -44 2041 -44 
Q 1297 -44 895 359 
Q 494 763 494 1538 
Q 494 1909 609 2212 
Q 725 2516 934 2731 
Q 1144 2947 1434 3064 
Q 1725 3181 2075 3181 
Q 2319 3181 2531 3147 
Q 2744 3113 2938 3034 
L 2938 2516 
Q 2734 2622 2523 2670 
Q 2313 2719 2088 2719 
Q 1878 2719 1692 2639 
Q 1506 2559 1365 2409 
Q 1225 2259 1144 2043 
Q 1063 1828 1063 1556 
Q 1063 988 1339 705 
Q 1616 422 2106 422 
Q 2328 422 2536 472 
Q 2744 522 2938 622 
L 2938 116 
z
" transform="scale(0.015625)"/>
       <path id="Consolas-68" d="M 3022 0 
L 2478 0 
L 2478 2003 
Q 2478 2366 2342 2545 
Q 2206 2725 1953 2725 
Q 1844 2725 1748 2695 
Q 1653 2666 1550 2592 
Q 1447 2519 1325 2394 
Q 1203 2269 1044 2081 
L 1044 0 
L 500 0 
L 500 4416 
L 1044 4416 
L 1044 3138 
L 1025 2644 
Q 1153 2797 1276 2901 
Q 1400 3006 1523 3072 
Q 1647 3138 1775 3166 
Q 1903 3194 2041 3194 
Q 2509 3194 2765 2908 
Q 3022 2622 3022 2047 
L 3022 0 
z
" transform="scale(0.015625)"/>
      </defs>
      <use xlink:href="#Consolas-45"/>
      <use xlink:href="#Consolas-70" x="54.980469"/>
      <use xlink:href="#Consolas-6f" x="109.960938"/>
      <use xlink:href="#Consolas-63" x="164.941406"/>
      <use xlink:href="#Consolas-68" x="219.921875"/>
     </g>
    </g>
   </g>
   <g id="matplotlib.axis_2">
    <g id="ytick_1">
     <g id="line2d_15">
      <path d="M 61.76 300.092727 
L 851.04 300.092727 
" clip-path="url(#p6e8d80eaf6)" style="fill: none; stroke: #b0b0b0; stroke-width: 0.8; stroke-linecap: square"/>
     </g>
     <g id="line2d_16">
      <defs>
       <path id="m7682d25db0" d="M 0 0 
L -3.5 0 
" style="stroke: #000000; stroke-width: 0.8"/>
      </defs>
      <g>
       <use xlink:href="#m7682d25db0" x="61.76" y="300.092727" style="stroke: #000000; stroke-width: 0.8"/>
      </g>
     </g>
     <g id="text_9">
      <!-- 0.00 -->
      <g transform="translate(28.3675 304.232727) scale(0.12 -0.12)">
       <defs>
        <path id="Consolas-2e" d="M 1734 984 
Q 1841 984 1936 943 
Q 2031 903 2101 831 
Q 2172 759 2212 664 
Q 2253 569 2253 459 
Q 2253 353 2212 259 
Q 2172 166 2101 95 
Q 2031 25 1936 -15 
Q 1841 -56 1734 -56 
Q 1625 -56 1531 -15 
Q 1438 25 1367 95 
Q 1297 166 1256 259 
Q 1216 353 1216 459 
Q 1216 569 1256 664 
Q 1297 759 1367 831 
Q 1438 903 1531 943 
Q 1625 984 1734 984 
z
" transform="scale(0.015625)"/>
       </defs>
       <use xlink:href="#Consolas-30"/>
       <use xlink:href="#Consolas-2e" x="54.980469"/>
       <use xlink:href="#Consolas-30" x="109.960938"/>
       <use xlink:href="#Consolas-30" x="164.941406"/>
      </g>
     </g>
    </g>
    <g id="ytick_2">
     <g id="line2d_17">
      <path d="M 61.76 265.632357 
L 851.04 265.632357 
" clip-path="url(#p6e8d80eaf6)" style="fill: none; stroke: #b0b0b0; stroke-width: 0.8; stroke-linecap: square"/>
     </g>
     <g id="line2d_18">
      <g>
       <use xlink:href="#m7682d25db0" x="61.76" y="265.632357" style="stroke: #000000; stroke-width: 0.8"/>
      </g>
     </g>
     <g id="text_10">
      <!-- 0.05 -->
      <g transform="translate(28.3675 269.772357) scale(0.12 -0.12)">
       <use xlink:href="#Consolas-30"/>
       <use xlink:href="#Consolas-2e" x="54.980469"/>
       <use xlink:href="#Consolas-30" x="109.960938"/>
       <use xlink:href="#Consolas-35" x="164.941406"/>
      </g>
     </g>
    </g>
    <g id="ytick_3">
     <g id="line2d_19">
      <path d="M 61.76 231.171988 
L 851.04 231.171988 
" clip-path="url(#p6e8d80eaf6)" style="fill: none; stroke: #b0b0b0; stroke-width: 0.8; stroke-linecap: square"/>
     </g>
     <g id="line2d_20">
      <g>
       <use xlink:href="#m7682d25db0" x="61.76" y="231.171988" style="stroke: #000000; stroke-width: 0.8"/>
      </g>
     </g>
     <g id="text_11">
      <!-- 0.10 -->
      <g transform="translate(28.3675 235.311988) scale(0.12 -0.12)">
       <use xlink:href="#Consolas-30"/>
       <use xlink:href="#Consolas-2e" x="54.980469"/>
       <use xlink:href="#Consolas-31" x="109.960938"/>
       <use xlink:href="#Consolas-30" x="164.941406"/>
      </g>
     </g>
    </g>
    <g id="ytick_4">
     <g id="line2d_21">
      <path d="M 61.76 196.711618 
L 851.04 196.711618 
" clip-path="url(#p6e8d80eaf6)" style="fill: none; stroke: #b0b0b0; stroke-width: 0.8; stroke-linecap: square"/>
     </g>
     <g id="line2d_22">
      <g>
       <use xlink:href="#m7682d25db0" x="61.76" y="196.711618" style="stroke: #000000; stroke-width: 0.8"/>
      </g>
     </g>
     <g id="text_12">
      <!-- 0.15 -->
      <g transform="translate(28.3675 200.851618) scale(0.12 -0.12)">
       <use xlink:href="#Consolas-30"/>
       <use xlink:href="#Consolas-2e" x="54.980469"/>
       <use xlink:href="#Consolas-31" x="109.960938"/>
       <use xlink:href="#Consolas-35" x="164.941406"/>
      </g>
     </g>
    </g>
    <g id="ytick_5">
     <g id="line2d_23">
      <path d="M 61.76 162.251248 
L 851.04 162.251248 
" clip-path="url(#p6e8d80eaf6)" style="fill: none; stroke: #b0b0b0; stroke-width: 0.8; stroke-linecap: square"/>
     </g>
     <g id="line2d_24">
      <g>
       <use xlink:href="#m7682d25db0" x="61.76" y="162.251248" style="stroke: #000000; stroke-width: 0.8"/>
      </g>
     </g>
     <g id="text_13">
      <!-- 0.20 -->
      <g transform="translate(28.3675 166.391248) scale(0.12 -0.12)">
       <use xlink:href="#Consolas-30"/>
       <use xlink:href="#Consolas-2e" x="54.980469"/>
       <use xlink:href="#Consolas-32" x="109.960938"/>
       <use xlink:href="#Consolas-30" x="164.941406"/>
      </g>
     </g>
    </g>
    <g id="ytick_6">
     <g id="line2d_25">
      <path d="M 61.76 127.790878 
L 851.04 127.790878 
" clip-path="url(#p6e8d80eaf6)" style="fill: none; stroke: #b0b0b0; stroke-width: 0.8; stroke-linecap: square"/>
     </g>
     <g id="line2d_26">
      <g>
       <use xlink:href="#m7682d25db0" x="61.76" y="127.790878" style="stroke: #000000; stroke-width: 0.8"/>
      </g>
     </g>
     <g id="text_14">
      <!-- 0.25 -->
      <g transform="translate(28.3675 131.930878) scale(0.12 -0.12)">
       <use xlink:href="#Consolas-30"/>
       <use xlink:href="#Consolas-2e" x="54.980469"/>
       <use xlink:href="#Consolas-32" x="109.960938"/>
       <use xlink:href="#Consolas-35" x="164.941406"/>
      </g>
     </g>
    </g>
    <g id="ytick_7">
     <g id="line2d_27">
      <path d="M 61.76 93.330508 
L 851.04 93.330508 
" clip-path="url(#p6e8d80eaf6)" style="fill: none; stroke: #b0b0b0; stroke-width: 0.8; stroke-linecap: square"/>
     </g>
     <g id="line2d_28">
      <g>
       <use xlink:href="#m7682d25db0" x="61.76" y="93.330508" style="stroke: #000000; stroke-width: 0.8"/>
      </g>
     </g>
     <g id="text_15">
      <!-- 0.30 -->
      <g transform="translate(28.3675 97.470508) scale(0.12 -0.12)">
       <use xlink:href="#Consolas-30"/>
       <use xlink:href="#Consolas-2e" x="54.980469"/>
       <use xlink:href="#Consolas-33" x="109.960938"/>
       <use xlink:href="#Consolas-30" x="164.941406"/>
      </g>
     </g>
    </g>
    <g id="ytick_8">
     <g id="line2d_29">
      <path d="M 61.76 58.870138 
L 851.04 58.870138 
" clip-path="url(#p6e8d80eaf6)" style="fill: none; stroke: #b0b0b0; stroke-width: 0.8; stroke-linecap: square"/>
     </g>
     <g id="line2d_30">
      <g>
       <use xlink:href="#m7682d25db0" x="61.76" y="58.870138" style="stroke: #000000; stroke-width: 0.8"/>
      </g>
     </g>
     <g id="text_16">
      <!-- 0.35 -->
      <g transform="translate(28.3675 63.010138) scale(0.12 -0.12)">
       <use xlink:href="#Consolas-30"/>
       <use xlink:href="#Consolas-2e" x="54.980469"/>
       <use xlink:href="#Consolas-33" x="109.960938"/>
       <use xlink:href="#Consolas-35" x="164.941406"/>
      </g>
     </g>
    </g>
    <g id="text_17">
     <!-- accuracy -->
     <g transform="translate(21.93 197.4125) rotate(-90) scale(0.12 -0.12)">
      <defs>
       <path id="Consolas-61" d="M 2516 0 
L 2503 422 
Q 2247 169 1983 56 
Q 1719 -56 1428 -56 
Q 1159 -56 968 12 
Q 778 81 654 201 
Q 531 322 473 484 
Q 416 647 416 838 
Q 416 1309 767 1576 
Q 1119 1844 1806 1844 
L 2456 1844 
L 2456 2119 
Q 2456 2397 2278 2564 
Q 2100 2731 1734 2731 
Q 1469 2731 1211 2672 
Q 953 2613 678 2503 
L 678 2994 
Q 781 3031 907 3067 
Q 1034 3103 1175 3131 
Q 1316 3159 1469 3176 
Q 1622 3194 1778 3194 
Q 2063 3194 2291 3131 
Q 2519 3069 2676 2941 
Q 2834 2813 2918 2619 
Q 3003 2425 3003 2163 
L 3003 0 
L 2516 0 
z
M 2456 1428 
L 1766 1428 
Q 1563 1428 1416 1387 
Q 1269 1347 1175 1272 
Q 1081 1197 1036 1092 
Q 991 988 991 856 
Q 991 766 1019 683 
Q 1047 600 1109 536 
Q 1172 472 1272 434 
Q 1372 397 1516 397 
Q 1703 397 1945 511 
Q 2188 625 2456 872 
L 2456 1428 
z
" transform="scale(0.015625)"/>
       <path id="Consolas-75" d="M 3022 0 
L 2534 0 
L 2516 506 
Q 2375 344 2248 236 
Q 2122 128 1997 62 
Q 1872 -3 1745 -29 
Q 1619 -56 1478 -56 
Q 994 -56 747 228 
Q 500 513 500 1088 
L 500 3138 
L 1044 3138 
L 1044 1131 
Q 1044 409 1588 409 
Q 1688 409 1783 439 
Q 1878 469 1983 542 
Q 2088 616 2208 741 
Q 2328 866 2478 1056 
L 2478 3138 
L 3022 3138 
L 3022 0 
z
" transform="scale(0.015625)"/>
       <path id="Consolas-72" d="M 628 3138 
L 1125 3138 
L 1141 2559 
Q 1419 2894 1689 3044 
Q 1959 3194 2234 3194 
Q 2722 3194 2973 2878 
Q 3225 2563 3206 1941 
L 2656 1941 
Q 2666 2353 2536 2539 
Q 2406 2725 2156 2725 
Q 2047 2725 1936 2686 
Q 1825 2647 1708 2561 
Q 1591 2475 1459 2340 
Q 1328 2206 1178 2016 
L 1178 0 
L 628 0 
L 628 3138 
z
" transform="scale(0.015625)"/>
       <path id="Consolas-79" d="M 3291 3138 
L 2222 331 
Q 2056 -97 1879 -406 
Q 1703 -716 1493 -914 
Q 1284 -1113 1034 -1206 
Q 784 -1300 475 -1300 
Q 394 -1300 328 -1297 
Q 263 -1294 184 -1288 
L 184 -794 
Q 253 -803 334 -811 
Q 416 -819 506 -819 
Q 656 -819 786 -775 
Q 916 -731 1031 -632 
Q 1147 -534 1253 -378 
Q 1359 -222 1459 0 
L 206 3138 
L 825 3138 
L 1619 1063 
L 1778 575 
L 1959 1075 
L 2694 3138 
L 3291 3138 
z
" transform="scale(0.015625)"/>
      </defs>
      <use xlink:href="#Consolas-61"/>
      <use xlink:href="#Consolas-63" x="54.980469"/>
      <use xlink:href="#Consolas-63" x="109.960938"/>
      <use xlink:href="#Consolas-75" x="164.941406"/>
      <use xlink:href="#Consolas-72" x="219.921875"/>
      <use xlink:href="#Consolas-61" x="274.902344"/>
      <use xlink:href="#Consolas-63" x="329.882812"/>
      <use xlink:href="#Consolas-79" x="384.863281"/>
     </g>
    </g>
   </g>
   <g id="line2d_31">
    <path d="M 97.636364 140.288399 
L 122.378683 123.898203 
L 147.121003 127.17624 
L 171.863323 138.64938 
L 196.605643 115.70312 
L 221.347962 123.898203 
L 246.090282 109.147045 
L 270.832602 109.147045 
L 295.574922 96.034897 
L 320.317241 115.70312 
L 345.059561 107.508017 
L 369.801881 84.561756 
L 394.544201 101.771446 
L 419.28652 95.215372 
L 444.02884 76.366674 
L 468.77116 88.659298 
L 493.51348 73.90814 
L 518.255799 65.713037 
L 542.998119 56.69843 
L 567.740439 64.074029 
L 592.482759 80.464215 
L 617.225078 59.976467 
L 641.967398 53.420393 
L 666.709718 67.352066 
L 691.452038 41.947273 
L 716.194357 59.976467 
L 740.936677 57.517955 
L 765.678997 42.766777 
L 790.421317 55.059421 
L 815.163636 54.239917 
" clip-path="url(#p6e8d80eaf6)" style="fill: none; stroke: #1f77b4; stroke-width: 1.5; stroke-linecap: square"/>
   </g>
   <g id="line2d_32">
    <path d="M 97.636364 300.092727 
L 122.378683 300.092727 
L 147.121003 300.092727 
L 171.863323 300.092727 
L 196.605643 300.092727 
L 221.347962 300.092727 
L 246.090282 300.092727 
L 270.832602 300.092727 
L 295.574922 300.092727 
L 320.317241 300.092727 
L 345.059561 300.092727 
L 369.801881 300.092727 
L 394.544201 300.092727 
L 419.28652 300.092727 
L 444.02884 300.092727 
L 468.77116 300.092727 
L 493.51348 300.092727 
L 518.255799 300.092727 
L 542.998119 300.092727 
L 567.740439 300.092727 
L 592.482759 300.092727 
L 617.225078 300.092727 
L 641.967398 300.092727 
L 666.709718 300.092727 
L 691.452038 300.092727 
L 716.194357 300.092727 
L 740.936677 300.092727 
L 765.678997 300.092727 
L 790.421317 300.092727 
L 815.163636 300.092727 
" clip-path="url(#p6e8d80eaf6)" style="fill: none; stroke: #ff7f0e; stroke-width: 1.5; stroke-linecap: square"/>
   </g>
   <g id="patch_3">
    <path d="M 61.76 313 
L 61.76 29.04 
" style="fill: none; stroke: #000000; stroke-width: 0.8; stroke-linejoin: miter; stroke-linecap: square"/>
   </g>
   <g id="patch_4">
    <path d="M 851.04 313 
L 851.04 29.04 
" style="fill: none; stroke: #000000; stroke-width: 0.8; stroke-linejoin: miter; stroke-linecap: square"/>
   </g>
   <g id="patch_5">
    <path d="M 61.76 313 
L 851.04 313 
" style="fill: none; stroke: #000000; stroke-width: 0.8; stroke-linejoin: miter; stroke-linecap: square"/>
   </g>
   <g id="patch_6">
    <path d="M 61.76 29.04 
L 851.04 29.04 
" style="fill: none; stroke: #000000; stroke-width: 0.8; stroke-linejoin: miter; stroke-linecap: square"/>
   </g>
   <g id="text_18">
    <!-- Train History -->
    <g transform="translate(404.934625 23.04) scale(0.144 -0.144)">
     <defs>
      <path id="Consolas-54" d="M 3250 3609 
L 2041 3609 
L 2041 0 
L 1478 0 
L 1478 3609 
L 269 3609 
L 269 4084 
L 3250 4084 
L 3250 3609 
z
" transform="scale(0.015625)"/>
      <path id="Consolas-69" d="M 1569 2688 
L 641 2688 
L 641 3138 
L 2119 3138 
L 2119 453 
L 3053 453 
L 3053 0 
L 538 0 
L 538 453 
L 1569 453 
L 1569 2688 
z
M 1759 4453 
Q 1850 4453 1928 4420 
Q 2006 4388 2064 4328 
Q 2122 4269 2155 4192 
Q 2188 4116 2188 4025 
Q 2188 3938 2155 3859 
Q 2122 3781 2064 3722 
Q 2006 3663 1928 3630 
Q 1850 3597 1759 3597 
Q 1669 3597 1591 3630 
Q 1513 3663 1455 3722 
Q 1397 3781 1364 3859 
Q 1331 3938 1331 4025 
Q 1331 4116 1364 4192 
Q 1397 4269 1455 4328 
Q 1513 4388 1591 4420 
Q 1669 4453 1759 4453 
z
" transform="scale(0.015625)"/>
      <path id="Consolas-6e" d="M 500 3138 
L 984 3138 
L 1006 2631 
Q 1144 2794 1272 2901 
Q 1400 3009 1523 3075 
Q 1647 3141 1775 3167 
Q 1903 3194 2041 3194 
Q 2525 3194 2773 2908 
Q 3022 2622 3022 2047 
L 3022 0 
L 2478 0 
L 2478 2003 
Q 2478 2372 2340 2548 
Q 2203 2725 1931 2725 
Q 1831 2725 1736 2695 
Q 1641 2666 1537 2592 
Q 1434 2519 1314 2394 
Q 1194 2269 1044 2081 
L 1044 0 
L 500 0 
L 500 3138 
z
" transform="scale(0.015625)"/>
      <path id="Consolas-20" transform="scale(0.015625)"/>
      <path id="Consolas-48" d="M 3175 0 
L 2619 0 
L 2619 1875 
L 903 1875 
L 903 0 
L 347 0 
L 347 4084 
L 903 4084 
L 903 2356 
L 2619 2356 
L 2619 4084 
L 3175 4084 
L 3175 0 
z
" transform="scale(0.015625)"/>
      <path id="Consolas-73" d="M 2984 856 
Q 2984 691 2928 559 
Q 2872 428 2775 326 
Q 2678 225 2550 153 
Q 2422 81 2276 34 
Q 2131 -13 1978 -34 
Q 1825 -56 1678 -56 
Q 1359 -56 1092 -28 
Q 825 0 569 63 
L 569 563 
Q 844 484 1116 443 
Q 1388 403 1656 403 
Q 2047 403 2234 509 
Q 2422 616 2422 813 
Q 2422 897 2392 964 
Q 2363 1031 2284 1092 
Q 2206 1153 2042 1218 
Q 1878 1284 1594 1369 
Q 1381 1431 1201 1511 
Q 1022 1591 890 1700 
Q 759 1809 684 1956 
Q 609 2103 609 2303 
Q 609 2434 670 2590 
Q 731 2747 878 2881 
Q 1025 3016 1275 3105 
Q 1525 3194 1900 3194 
Q 2084 3194 2309 3173 
Q 2534 3153 2778 3103 
L 2778 2619 
Q 2522 2681 2292 2711 
Q 2063 2741 1894 2741 
Q 1691 2741 1552 2709 
Q 1413 2678 1327 2623 
Q 1241 2569 1203 2495 
Q 1166 2422 1166 2338 
Q 1166 2253 1198 2184 
Q 1231 2116 1320 2052 
Q 1409 1988 1568 1923 
Q 1728 1859 1984 1784 
Q 2263 1703 2453 1614 
Q 2644 1525 2762 1415 
Q 2881 1306 2932 1168 
Q 2984 1031 2984 856 
z
" transform="scale(0.015625)"/>
      <path id="Consolas-74" d="M 3028 44 
Q 2844 -3 2647 -23 
Q 2450 -44 2247 -44 
Q 1656 -44 1365 223 
Q 1075 491 1075 1044 
L 1075 2681 
L 197 2681 
L 197 3138 
L 1075 3138 
L 1075 4000 
L 1619 4141 
L 1619 3138 
L 3028 3138 
L 3028 2681 
L 1619 2681 
L 1619 1088 
Q 1619 750 1798 583 
Q 1978 416 2328 416 
Q 2478 416 2656 439 
Q 2834 463 3028 513 
L 3028 44 
z
" transform="scale(0.015625)"/>
     </defs>
     <use xlink:href="#Consolas-54"/>
     <use xlink:href="#Consolas-72" x="54.980469"/>
     <use xlink:href="#Consolas-61" x="109.960938"/>
     <use xlink:href="#Consolas-69" x="164.941406"/>
     <use xlink:href="#Consolas-6e" x="219.921875"/>
     <use xlink:href="#Consolas-20" x="274.902344"/>
     <use xlink:href="#Consolas-48" x="329.882812"/>
     <use xlink:href="#Consolas-69" x="384.863281"/>
     <use xlink:href="#Consolas-73" x="439.84375"/>
     <use xlink:href="#Consolas-74" x="494.824219"/>
     <use xlink:href="#Consolas-6f" x="549.804688"/>
     <use xlink:href="#Consolas-72" x="604.785156"/>
     <use xlink:href="#Consolas-79" x="659.765625"/>
    </g>
   </g>
   <g id="legend_1">
    <g id="patch_7">
     <path d="M 70.16 72.24375 
L 174.54125 72.24375 
Q 176.94125 72.24375 176.94125 69.84375 
L 176.94125 37.44 
Q 176.94125 35.04 174.54125 35.04 
L 70.16 35.04 
Q 67.76 35.04 67.76 37.44 
L 67.76 69.84375 
Q 67.76 72.24375 70.16 72.24375 
z
" style="fill: #ffffff; opacity: 0.8; stroke: #cccccc; stroke-linejoin: miter"/>
    </g>
    <g id="line2d_33">
     <path d="M 72.56 44.04 
L 84.56 44.04 
L 96.56 44.04 
" style="fill: none; stroke: #1f77b4; stroke-width: 1.5; stroke-linecap: square"/>
    </g>
    <g id="text_19">
     <!-- train -->
     <g transform="translate(106.16 48.24) scale(0.12 -0.12)">
      <use xlink:href="#Consolas-74"/>
      <use xlink:href="#Consolas-72" x="54.980469"/>
      <use xlink:href="#Consolas-61" x="109.960938"/>
      <use xlink:href="#Consolas-69" x="164.941406"/>
      <use xlink:href="#Consolas-6e" x="219.921875"/>
     </g>
    </g>
    <g id="line2d_34">
     <path d="M 72.56 60.841875 
L 84.56 60.841875 
L 96.56 60.841875 
" style="fill: none; stroke: #ff7f0e; stroke-width: 1.5; stroke-linecap: square"/>
    </g>
    <g id="text_20">
     <!-- validation -->
     <g transform="translate(106.16 65.041875) scale(0.12 -0.12)">
      <defs>
       <path id="Consolas-76" d="M 206 3138 
L 825 3138 
L 1594 1063 
L 1759 556 
L 1931 1075 
L 2694 3138 
L 3291 3138 
L 2059 0 
L 1434 0 
L 206 3138 
z
" transform="scale(0.015625)"/>
       <path id="Consolas-6c" d="M 1569 3969 
L 641 3969 
L 641 4416 
L 2119 4416 
L 2119 453 
L 3053 453 
L 3053 0 
L 538 0 
L 538 453 
L 1569 453 
L 1569 3969 
z
" transform="scale(0.015625)"/>
       <path id="Consolas-64" d="M 341 1503 
Q 341 1903 450 2214 
Q 559 2525 761 2739 
Q 963 2953 1245 3064 
Q 1528 3175 1875 3175 
Q 2025 3175 2170 3156 
Q 2316 3138 2456 3097 
L 2456 4416 
L 3003 4416 
L 3003 0 
L 2516 0 
L 2497 594 
Q 2269 263 2003 103 
Q 1738 -56 1428 -56 
Q 1159 -56 954 56 
Q 750 169 614 373 
Q 478 578 409 865 
Q 341 1153 341 1503 
z
M 897 1538 
Q 897 969 1064 689 
Q 1231 409 1538 409 
Q 1744 409 1973 593 
Q 2203 778 2456 1141 
L 2456 2597 
Q 2322 2659 2159 2692 
Q 1997 2725 1838 2725 
Q 1394 2725 1145 2437 
Q 897 2150 897 1538 
z
" transform="scale(0.015625)"/>
      </defs>
      <use xlink:href="#Consolas-76"/>
      <use xlink:href="#Consolas-61" x="54.980469"/>
      <use xlink:href="#Consolas-6c" x="109.960938"/>
      <use xlink:href="#Consolas-69" x="164.941406"/>
      <use xlink:href="#Consolas-64" x="219.921875"/>
      <use xlink:href="#Consolas-61" x="274.902344"/>
      <use xlink:href="#Consolas-74" x="329.882812"/>
      <use xlink:href="#Consolas-69" x="384.863281"/>
      <use xlink:href="#Consolas-6f" x="439.84375"/>
      <use xlink:href="#Consolas-6e" x="494.824219"/>
     </g>
    </g>
   </g>
  </g>
 </g>
 <defs>
  <clipPath id="p6e8d80eaf6">
   <rect x="61.76" y="29.04" width="789.28" height="283.96"/>
  </clipPath>
 </defs>
</svg>
